<svg xmlns="http://www.w3.org/2000/svg" xmlns:xlink="http://www.w3.org/1999/xlink" width="500" zoomAndPan="magnify" viewBox="0 0 375 374.999991" height="500" preserveAspectRatio="xMidYMid meet" version="1.2"><defs><filter x="0%" y="0%" width="100%" filterUnits="objectBoundingBox" id="39b394e585" height="100%"><feColorMatrix values="0 0 0 0 1 0 0 0 0 1 0 0 0 0 1 0 0 0 1 0" type="matrix" in="SourceGraphic"/></filter><clipPath id="fb54a38512"><path d="M 1 0 L 56 0 L 56 74 L 1 74 Z M 1 0 "/></clipPath><clipPath id="b7b558b2ef"><path d="M 0.355469 1 L 55.324219 -0.0390625 L 56.734375 74.664062 L 1.765625 75.703125 Z M 0.355469 1 "/></clipPath><clipPath id="0ea7bf7987"><path d="M 0.355469 1 L 55.324219 -0.0390625 L 56.734375 74.664062 L 1.765625 75.703125 Z M 0.355469 1 "/></clipPath><clipPath id="354f7ca80a"><path d="M 2 17 L 55 17 L 55 74 L 2 74 Z M 2 17 "/></clipPath><clipPath id="3b534cefc9"><path d="M 0.355469 1 L 55.324219 -0.0390625 L 56.734375 74.664062 L 1.765625 75.703125 Z M 0.355469 1 "/></clipPath><clipPath id="9dc1f5d16a"><path d="M 0.355469 1 L 55.324219 -0.0390625 L 56.734375 74.664062 L 1.765625 75.703125 Z M 0.355469 1 "/></clipPath><clipPath id="15627bd3f1"><path d="M 1 23 L 47 23 L 47 65 L 1 65 Z M 1 23 "/></clipPath><clipPath id="979e702e18"><path d="M 0.355469 1 L 55.324219 -0.0390625 L 56.734375 74.664062 L 1.765625 75.703125 Z M 0.355469 1 "/></clipPath><clipPath id="42f4d0fdb6"><path d="M 0.355469 1 L 55.324219 -0.0390625 L 56.734375 74.664062 L 1.765625 75.703125 Z M 0.355469 1 "/></clipPath><clipPath id="fb7f9eee5e"><path d="M 16 1 L 53 1 L 53 24 L 16 24 Z M 16 1 "/></clipPath><clipPath id="89e8e9f300"><path d="M 0.355469 1 L 55.324219 -0.0390625 L 56.734375 74.664062 L 1.765625 75.703125 Z M 0.355469 1 "/></clipPath><clipPath id="f90255ff8e"><path d="M 0.355469 1 L 55.324219 -0.0390625 L 56.734375 74.664062 L 1.765625 75.703125 Z M 0.355469 1 "/></clipPath><clipPath id="55eec1bb1e"><path d="M 6 13 L 56 13 L 56 48 L 6 48 Z M 6 13 "/></clipPath><clipPath id="40d5f415e0"><path d="M 0.355469 1 L 55.324219 -0.0390625 L 56.734375 74.664062 L 1.765625 75.703125 Z M 0.355469 1 "/></clipPath><clipPath id="ab29fac801"><path d="M 0.355469 1 L 55.324219 -0.0390625 L 56.734375 74.664062 L 1.765625 75.703125 Z M 0.355469 1 "/></clipPath><clipPath id="86f275fbe3"><path d="M 1 22 L 50 22 L 50 66 L 1 66 Z M 1 22 "/></clipPath><clipPath id="5de8b42a96"><path d="M 0.355469 1 L 55.324219 -0.0390625 L 56.734375 74.664062 L 1.765625 75.703125 Z M 0.355469 1 "/></clipPath><clipPath id="ccde35f7b9"><path d="M 0.355469 1 L 55.324219 -0.0390625 L 56.734375 74.664062 L 1.765625 75.703125 Z M 0.355469 1 "/></clipPath><clipPath id="e9e5d189f1"><path d="M 10 9 L 56 9 L 56 40 L 10 40 Z M 10 9 "/></clipPath><clipPath id="c44fddf4ad"><path d="M 0.355469 1 L 55.324219 -0.0390625 L 56.734375 74.664062 L 1.765625 75.703125 Z M 0.355469 1 "/></clipPath><clipPath id="d3e8615d53"><path d="M 0.355469 1 L 55.324219 -0.0390625 L 56.734375 74.664062 L 1.765625 75.703125 Z M 0.355469 1 "/></clipPath><clipPath id="3622aa3979"><path d="M 14 7 L 54 7 L 54 29 L 14 29 Z M 14 7 "/></clipPath><clipPath id="ceaacbd4d7"><path d="M 0.355469 1 L 55.324219 -0.0390625 L 56.734375 74.664062 L 1.765625 75.703125 Z M 0.355469 1 "/></clipPath><clipPath id="08c1affc1e"><path d="M 0.355469 1 L 55.324219 -0.0390625 L 56.734375 74.664062 L 1.765625 75.703125 Z M 0.355469 1 "/></clipPath><clipPath id="01e11dc98e"><path d="M 1 30 L 14 30 L 14 66 L 1 66 Z M 1 30 "/></clipPath><clipPath id="b0786d27cb"><path d="M 0.355469 1 L 55.324219 -0.0390625 L 56.734375 74.664062 L 1.765625 75.703125 Z M 0.355469 1 "/></clipPath><clipPath id="4e3fcaa1c0"><path d="M 0.355469 1 L 55.324219 -0.0390625 L 56.734375 74.664062 L 1.765625 75.703125 Z M 0.355469 1 "/></clipPath><clipPath id="2db3f5b074"><path d="M 28 38 L 36 38 L 36 49 L 28 49 Z M 28 38 "/></clipPath><clipPath id="b9f849bf29"><path d="M 0.355469 1 L 55.324219 -0.0390625 L 56.734375 74.664062 L 1.765625 75.703125 Z M 0.355469 1 "/></clipPath><clipPath id="f5e273dd43"><path d="M 0.355469 1 L 55.324219 -0.0390625 L 56.734375 74.664062 L 1.765625 75.703125 Z M 0.355469 1 "/></clipPath><clipPath id="8704f1ddfd"><path d="M 26 0 L 49 0 L 49 14 L 26 14 Z M 26 0 "/></clipPath><clipPath id="06da280870"><path d="M 0.355469 1 L 55.324219 -0.0390625 L 56.734375 74.664062 L 1.765625 75.703125 Z M 0.355469 1 "/></clipPath><clipPath id="5e0511dcd5"><path d="M 0.355469 1 L 55.324219 -0.0390625 L 56.734375 74.664062 L 1.765625 75.703125 Z M 0.355469 1 "/></clipPath><clipPath id="aa95d5f4c1"><path d="M 21 51 L 41 51 L 41 63 L 21 63 Z M 21 51 "/></clipPath><clipPath id="b105779fa3"><path d="M 0.355469 1 L 55.324219 -0.0390625 L 56.734375 74.664062 L 1.765625 75.703125 Z M 0.355469 1 "/></clipPath><clipPath id="a16b547a5c"><path d="M 0.355469 1 L 55.324219 -0.0390625 L 56.734375 74.664062 L 1.765625 75.703125 Z M 0.355469 1 "/></clipPath><clipPath id="d23e5ddaa6"><path d="M 33 0 L 41 0 L 41 5 L 33 5 Z M 33 0 "/></clipPath><clipPath id="efd91e62db"><path d="M 0.355469 1 L 55.324219 -0.0390625 L 56.734375 74.664062 L 1.765625 75.703125 Z M 0.355469 1 "/></clipPath><clipPath id="448c9bf5ce"><path d="M 0.355469 1 L 55.324219 -0.0390625 L 56.734375 74.664062 L 1.765625 75.703125 Z M 0.355469 1 "/></clipPath><clipPath id="660ec0f5ea"><path d="M 44 64 L 50 64 L 50 69 L 44 69 Z M 44 64 "/></clipPath><clipPath id="69c05c1abb"><path d="M 0.355469 1 L 55.324219 -0.0390625 L 56.734375 74.664062 L 1.765625 75.703125 Z M 0.355469 1 "/></clipPath><clipPath id="a2df163afd"><path d="M 0.355469 1 L 55.324219 -0.0390625 L 56.734375 74.664062 L 1.765625 75.703125 Z M 0.355469 1 "/></clipPath><clipPath id="8bbeeb6b31"><path d="M 5 49 L 7 49 L 7 54 L 5 54 Z M 5 49 "/></clipPath><clipPath id="1d6db16e0e"><path d="M 0.355469 1 L 55.324219 -0.0390625 L 56.734375 74.664062 L 1.765625 75.703125 Z M 0.355469 1 "/></clipPath><clipPath id="cc99e53b1b"><path d="M 0.355469 1 L 55.324219 -0.0390625 L 56.734375 74.664062 L 1.765625 75.703125 Z M 0.355469 1 "/></clipPath><clipPath id="830f8fe707"><path d="M 28 53 L 32 53 L 32 56 L 28 56 Z M 28 53 "/></clipPath><clipPath id="96ad20c6d0"><path d="M 0.355469 1 L 55.324219 -0.0390625 L 56.734375 74.664062 L 1.765625 75.703125 Z M 0.355469 1 "/></clipPath><clipPath id="5d8203690a"><path d="M 0.355469 1 L 55.324219 -0.0390625 L 56.734375 74.664062 L 1.765625 75.703125 Z M 0.355469 1 "/></clipPath><clipPath id="5400fd7170"><path d="M 22 49 L 24 49 L 24 52 L 22 52 Z M 22 49 "/></clipPath><clipPath id="ddafb2d53a"><path d="M 0.355469 1 L 55.324219 -0.0390625 L 56.734375 74.664062 L 1.765625 75.703125 Z M 0.355469 1 "/></clipPath><clipPath id="b32f358305"><path d="M 0.355469 1 L 55.324219 -0.0390625 L 56.734375 74.664062 L 1.765625 75.703125 Z M 0.355469 1 "/></clipPath><clipPath id="df29a2de91"><path d="M 29 40 L 34 40 L 34 48 L 29 48 Z M 29 40 "/></clipPath><clipPath id="910cdff896"><path d="M 0.355469 1 L 55.324219 -0.0390625 L 56.734375 74.664062 L 1.765625 75.703125 Z M 0.355469 1 "/></clipPath><clipPath id="a2deedb64a"><path d="M 0.355469 1 L 55.324219 -0.0390625 L 56.734375 74.664062 L 1.765625 75.703125 Z M 0.355469 1 "/></clipPath><clipPath id="0d83a570ab"><rect x="0" width="57" y="0" height="75"/></clipPath><clipPath id="ea7dc3807c"><path d="M 46 31 L 329.351562 31 L 329.351562 345.234375 L 46 345.234375 Z M 46 31 "/></clipPath><clipPath id="49a08535d6"><path d="M 169 169 L 206 169 L 206 205.535156 L 169 205.535156 Z M 169 169 "/></clipPath></defs><g id="46e7f783c6"><g mask="url(#05dfcc06fc)" transform="matrix(1,0,0,1,159,150)"><g clip-path="url(#0d83a570ab)"><g clip-rule="nonzero" clip-path="url(#fb54a38512)"><g clip-rule="nonzero" clip-path="url(#b7b558b2ef)"><g clip-rule="nonzero" clip-path="url(#0ea7bf7987)"><path style=" stroke:none;fill-rule:nonzero;fill:#ffffff;fill-opacity:1;" d="M 11.652344 52.574219 C 11.558594 52.59375 11.464844 52.613281 11.375 52.628906 C 11.289062 52.222656 11.125 51.808594 11.140625 51.402344 C 11.207031 49.933594 11.386719 48.46875 11.433594 46.996094 C 11.5625 42.789062 12.730469 38.894531 15.339844 35.605469 C 20.789062 28.738281 28.792969 27.144531 36.722656 32.332031 C 37.261719 32.6875 37.792969 33.167969 38.125 33.714844 C 39.289062 35.628906 40.539062 37.523438 41.441406 39.566406 C 42.886719 42.851562 43.355469 46.386719 43.359375 49.960938 C 43.363281 52.289062 42.902344 54.507812 41.0625 56.195312 C 40.84375 56.394531 40.636719 56.652344 40.539062 56.921875 C 40.4375 57.191406 40.476562 57.515625 40.457031 57.816406 C 40.765625 57.800781 41.101562 57.847656 41.378906 57.746094 C 41.644531 57.644531 41.871094 57.40625 42.082031 57.195312 C 43.347656 55.910156 44.074219 54.351562 44.359375 52.582031 C 44.8125 49.792969 44.648438 47.019531 44.234375 44.234375 C 43.308594 38.007812 40.257812 32.902344 35.386719 29.167969 C 30.5625 25.472656 24.988281 24.808594 19.40625 27.566406 C 17.335938 28.589844 15.570312 30.226562 13.675781 31.601562 C 11.625 33.089844 9.792969 34.804688 8.410156 36.953125 C 8.101562 37.429688 7.765625 37.914062 7.582031 38.445312 C 6.429688 41.792969 5.367188 45.167969 4.171875 48.5 C 3.398438 50.660156 3.742188 52.605469 4.8125 54.554688 C 5.589844 55.972656 6.3125 57.429688 6.953125 58.917969 C 8.484375 62.484375 10.269531 65.871094 13.308594 68.414062 C 15.039062 69.859375 16.800781 71.269531 18.585938 72.644531 C 19.148438 73.078125 19.808594 73.4375 20.480469 73.65625 C 20.886719 73.789062 21.398438 73.585938 21.863281 73.53125 C 21.5625 73.203125 21.320312 72.773438 20.953125 72.570312 C 15.945312 69.792969 11.847656 66.121094 9.316406 60.886719 C 8.085938 58.34375 6.886719 55.789062 5.605469 53.277344 C 4.898438 51.886719 4.871094 50.535156 5.386719 49.101562 C 5.835938 47.859375 6.214844 46.59375 6.621094 45.335938 C 7.160156 43.652344 7.621094 41.941406 8.265625 40.300781 C 8.722656 39.140625 9.421875 38.082031 10.015625 36.976562 C 10.101562 37.023438 10.191406 37.066406 10.277344 37.109375 C 10.21875 37.328125 10.191406 37.570312 10.089844 37.765625 C 8.882812 40.082031 8.230469 42.570312 7.839844 45.132812 C 7.4375 47.808594 6.992188 50.476562 7.492188 53.199219 C 8.226562 57.195312 10.335938 60.570312 12.351562 63.984375 C 13.4375 65.824219 14.933594 67.289062 16.769531 68.40625 C 18.441406 69.421875 20.070312 70.503906 21.765625 71.46875 C 22.507812 71.894531 23.347656 72.222656 24.1875 72.386719 C 26.957031 72.925781 29.746094 73.378906 32.53125 73.839844 C 34.222656 74.121094 35.894531 74.011719 37.5 73.375 C 37.757812 73.269531 37.929688 72.945312 38.140625 72.71875 C 37.855469 72.546875 37.585938 72.332031 37.28125 72.21875 C 37.109375 72.15625 36.875 72.277344 36.664062 72.289062 C 35.5 72.367188 34.3125 72.625 33.179688 72.476562 C 30.203125 72.089844 27.242188 71.5625 24.289062 71.007812 C 23.457031 70.847656 22.625 70.492188 21.882812 70.066406 C 20.324219 69.167969 18.804688 68.191406 17.308594 67.183594 C 16.515625 66.652344 15.675781 66.097656 15.085938 65.367188 C 11.609375 61.097656 8.953125 56.421875 8.804688 50.746094 C 8.671875 45.816406 9.898438 41.15625 11.792969 36.605469 C 12.792969 34.203125 14.296875 32.414062 16.414062 31.035156 C 16.867188 30.742188 17.285156 30.390625 17.722656 30.070312 C 21.921875 27.011719 26.46875 26.304688 31.375 28.070312 C 31.792969 28.222656 32.175781 28.476562 32.578125 28.683594 C 32.542969 28.765625 32.503906 28.851562 32.46875 28.941406 C 32.039062 28.847656 31.617188 28.726562 31.183594 28.675781 C 29.402344 28.464844 27.589844 27.960938 25.84375 28.128906 C 19.925781 28.691406 15.792969 32.0625 12.855469 37.042969 C 11.027344 40.144531 10.480469 43.597656 10.125 47.128906 C 9.84375 49.921875 9.804688 52.648438 10.769531 55.316406 C 14.046875 64.359375 20.136719 69.980469 29.9375 71.160156 C 33.8125 71.628906 37.621094 71.730469 41.273438 70.097656 C 41.886719 69.824219 42.476562 69.425781 42.96875 68.972656 C 44.492188 67.578125 45.988281 66.148438 47.457031 64.695312 C 49.984375 62.207031 52.113281 59.453125 52.441406 55.769531 C 52.664062 53.285156 52.65625 50.785156 52.75 48.292969 C 52.765625 47.929688 52.777344 47.570312 52.789062 47.210938 C 52.878906 47.203125 52.96875 47.199219 53.0625 47.191406 C 53.148438 47.765625 53.3125 48.339844 53.304688 48.910156 C 53.277344 51.011719 53.183594 53.109375 53.152344 55.207031 C 53.148438 55.5 53.386719 55.796875 53.507812 56.09375 C 53.789062 55.863281 54.21875 55.683594 54.316406 55.390625 C 54.53125 54.742188 54.605469 54.042969 54.6875 53.359375 C 55.007812 50.738281 54.445312 48.191406 53.863281 45.683594 C 52.277344 38.886719 49.28125 32.671875 45.648438 26.753906 C 45.191406 26.011719 44.46875 25.382812 43.757812 24.851562 C 40.746094 22.605469 37.464844 20.882812 33.816406 19.902344 C 31.902344 19.386719 29.992188 18.859375 28.089844 18.300781 C 19.84375 15.863281 12.578125 18.144531 5.824219 22.902344 C 5.488281 23.144531 5.128906 23.433594 4.945312 23.789062 C 4.804688 24.070312 4.921875 24.480469 4.921875 24.835938 C 5.242188 24.773438 5.613281 24.800781 5.867188 24.640625 C 7.203125 23.792969 8.441406 22.769531 9.839844 22.050781 C 12.890625 20.484375 16.03125 19.046875 19.496094 18.722656 C 25.566406 18.160156 31.097656 20.179688 36.542969 22.503906 C 36.839844 22.628906 37.070312 22.921875 37.328125 23.136719 C 37.285156 23.21875 37.238281 23.304688 37.191406 23.386719 C 36.683594 23.195312 36.175781 23 35.664062 22.816406 C 32.984375 21.847656 30.351562 20.714844 27.613281 19.957031 C 23.386719 18.789062 19.03125 18.492188 14.988281 20.460938 C 11.167969 22.324219 7.5625 24.636719 3.882812 26.789062 C 3.667969 26.914062 3.644531 27.375 3.53125 27.675781 C 3.851562 27.765625 4.222656 28.007812 4.476562 27.917969 C 5.03125 27.71875 5.542969 27.378906 6.039062 27.046875 C 8.042969 25.71875 9.976562 24.285156 12.042969 23.066406 C 13.53125 22.191406 15.179688 21.578125 16.777344 20.898438 C 17.101562 20.761719 17.527344 20.867188 17.90625 20.859375 C 17.917969 20.941406 17.929688 21.019531 17.9375 21.101562 C 17.609375 21.230469 17.285156 21.359375 16.957031 21.484375 C 15.667969 21.984375 14.320312 22.363281 13.101562 23 C 9.371094 24.949219 6.230469 27.726562 3.085938 30.476562 C 2.75 30.769531 2.703125 31.398438 2.523438 31.871094 C 2.972656 31.75 3.527344 31.753906 3.859375 31.488281 C 5.261719 30.359375 6.609375 29.160156 7.960938 27.96875 C 10.371094 25.84375 12.957031 24.015625 16.039062 22.992188 C 19.691406 21.777344 23.417969 20.789062 27.273438 21.484375 C 31.21875 22.195312 34.988281 23.535156 38.523438 25.472656 C 41.191406 26.9375 43.230469 28.949219 44.394531 31.824219 C 44.796875 32.816406 45.507812 33.675781 46.007812 34.636719 C 46.777344 36.113281 47.722656 37.558594 48.175781 39.136719 C 49.507812 43.742188 49.746094 48.492188 49.523438 53.261719 C 49.484375 54.097656 49.371094 54.945312 49.167969 55.753906 C 47.542969 62.171875 39.777344 67.199219 32.9375 66.191406 C 30.59375 65.847656 28.292969 65.238281 25.96875 64.765625 C 25.40625 64.652344 24.582031 64.277344 24.382812 64.996094 C 24.167969 65.757812 25.050781 65.949219 25.644531 66.089844 C 27.308594 66.480469 28.984375 66.832031 30.664062 67.171875 C 34.925781 68.039062 38.976562 67.46875 42.789062 65.351562 C 48.050781 62.425781 51.050781 58.105469 50.917969 51.933594 C 50.867188 49.527344 50.726562 47.121094 50.507812 44.730469 C 50.09375 40.214844 49.121094 35.875 46.207031 32.207031 C 45.890625 31.8125 45.605469 31.367188 45.410156 30.902344 C 44.226562 28.082031 42.117188 26.148438 39.542969 24.628906 C 39.25 24.457031 39.019531 24.167969 38.761719 23.929688 C 38.816406 23.851562 38.875 23.773438 38.929688 23.695312 C 39.457031 23.941406 39.992188 24.164062 40.503906 24.433594 C 42.800781 25.644531 44.839844 27.058594 45.875 29.640625 C 46.628906 31.527344 47.695312 33.289062 48.578125 35.128906 C 49.246094 36.53125 50.117188 37.90625 50.429688 39.394531 C 51.457031 44.265625 51.792969 49.1875 51.273438 54.183594 C 50.621094 60.433594 47.261719 64.476562 41.550781 66.660156 C 36.304688 68.664062 31.003906 68.335938 25.71875 66.671875 C 24.46875 66.28125 23.453125 65.605469 22.601562 64.628906 C 21.363281 63.195312 20 61.855469 18.890625 60.328125 C 17.714844 58.714844 16.570312 57.019531 15.773438 55.199219 C 13.722656 50.5 14.226562 45.617188 15.1875 40.757812 C 15.246094 40.464844 15.347656 40.171875 15.496094 39.914062 C 16.914062 37.40625 18.636719 35.148438 20.96875 33.417969 C 22.703125 32.132812 24.632812 31.347656 26.835938 31.453125 C 27.792969 31.5 28.75 31.617188 29.707031 31.71875 C 33.613281 32.148438 36.527344 34.03125 38.289062 37.59375 C 38.542969 38.105469 38.792969 38.617188 39.039062 39.132812 C 40.296875 41.742188 41.0625 44.460938 40.851562 47.394531 C 40.613281 50.664062 38.203125 53.648438 35.089844 54.34375 C 34.390625 54.5 33.546875 54.335938 32.847656 54.09375 C 31.636719 53.664062 30.511719 52.992188 29.304688 52.546875 C 28.261719 52.164062 27.484375 51.53125 27.160156 50.511719 C 26.421875 48.203125 25.648438 45.886719 25.140625 43.519531 C 24.6875 41.386719 25.058594 39.304688 26.6875 37.65625 C 27.734375 36.601562 29.011719 36.226562 30.472656 36.621094 C 31.925781 37.015625 33.007812 38.003906 33.914062 39.101562 C 35.808594 41.394531 36.515625 44.066406 35.648438 46.945312 C 34.988281 49.136719 33.089844 49.574219 31.335938 48.105469 C 30.21875 47.171875 29.523438 45.96875 29.09375 44.582031 C 28.921875 44.023438 28.609375 43.507812 28.363281 42.972656 C 28.269531 43 28.175781 43.03125 28.082031 43.058594 C 28.035156 43.25 27.949219 43.441406 27.953125 43.628906 C 27.988281 45.882812 28.738281 47.816406 30.558594 49.226562 C 33.234375 51.304688 36.050781 50.382812 36.828125 47.09375 C 37.675781 43.515625 36.648438 40.300781 34.425781 37.484375 C 32.945312 35.613281 30.738281 34.972656 28.496094 34.554688 C 26.324219 34.152344 24.359375 34.628906 23.101562 36.554688 C 22.394531 37.636719 21.890625 38.894531 21.519531 40.140625 C 20.769531 42.664062 20.449219 45.269531 20.949219 47.890625 C 21.519531 50.878906 23.886719 52.867188 25.304688 55.386719 C 25.414062 55.578125 25.867188 55.566406 26.160156 55.648438 C 26.230469 55.324219 26.449219 54.933594 26.34375 54.679688 C 25.515625 52.664062 25.234375 50.421875 23.816406 48.648438 C 23.445312 48.179688 23.15625 47.644531 22.832031 47.136719 C 22.132812 46.042969 21.945312 44.832031 22.207031 43.585938 C 22.492188 42.238281 22.808594 40.886719 23.242188 39.582031 C 23.726562 38.128906 24.351562 36.714844 25.878906 36.015625 C 26.183594 35.878906 26.523438 35.820312 26.847656 35.722656 C 26.347656 36.339844 25.769531 36.714844 25.261719 37.167969 C 23.730469 38.542969 23.65625 40.410156 23.746094 42.25 C 23.980469 46.917969 25.738281 51.136719 27.867188 55.199219 C 28.835938 57.046875 30.402344 57.617188 32.390625 57.011719 C 35.140625 56.179688 37.746094 55.027344 39.691406 52.773438 C 39.953125 52.472656 40.253906 52.207031 40.535156 51.929688 C 40.609375 51.976562 40.679688 52.027344 40.75 52.074219 C 40.65625 52.335938 40.625 52.648438 40.457031 52.847656 C 39.308594 54.226562 38.308594 55.8125 36.917969 56.886719 C 35.203125 58.207031 33.097656 59.058594 30.835938 58.519531 C 29.578125 58.21875 28.421875 57.507812 27.203125 57.039062 C 26.921875 56.933594 26.554688 57.0625 26.230469 57.082031 C 26.316406 57.398438 26.300781 57.851562 26.507812 58.011719 C 28.253906 59.351562 30.105469 60.382812 32.457031 60.082031 C 34.8125 59.78125 36.738281 58.6875 38.59375 57.269531 C 40.503906 55.808594 41.648438 53.957031 41.992188 51.636719 C 42.757812 46.507812 42.042969 41.613281 39.542969 37.007812 C 37.691406 33.597656 35.144531 31.1875 31.105469 30.757812 C 30.65625 30.710938 30.222656 30.578125 29.777344 30.496094 C 27.164062 30.003906 24.515625 29.777344 22.128906 31.164062 C 20.457031 32.132812 18.839844 33.292969 17.472656 34.644531 C 15.59375 36.5 14.054688 38.695312 13.609375 41.394531 C 13.308594 43.226562 13.136719 45.097656 13.082031 46.953125 C 12.835938 55.246094 16.433594 61.671875 22.871094 66.632812 C 23.722656 67.289062 24.816406 67.734375 25.867188 68.007812 C 27.632812 68.472656 29.464844 68.691406 31.257812 69.0625 C 33.109375 69.445312 34.960938 69.496094 36.808594 69.113281 C 38.132812 68.839844 39.445312 68.507812 40.761719 68.210938 C 41.179688 68.117188 41.597656 68.039062 42.015625 67.957031 C 42.050781 68.042969 42.089844 68.125 42.125 68.210938 C 41.835938 68.429688 41.574219 68.738281 41.246094 68.851562 C 40.03125 69.273438 38.8125 69.878906 37.5625 69.964844 C 35.207031 70.125 32.828125 69.910156 30.460938 69.972656 C 27.636719 70.046875 25.152344 69.101562 22.796875 67.691406 C 17.949219 64.796875 14.59375 60.628906 12.453125 55.453125 C 12.289062 55.058594 12.265625 54.457031 12.453125 54.097656 C 13.101562 52.863281 12.863281 51.644531 12.570312 50.414062 C 12.515625 50.183594 12.328125 49.984375 12.15625 49.6875 C 11.175781 50.613281 11.976562 51.6875 11.652344 52.574219 Z M 33.464844 53.867188 C 33.917969 53.816406 34.398438 53.832031 34.832031 53.699219 C 37.554688 52.886719 38.953125 50.890625 39.429688 48.222656 C 40.058594 44.675781 39.046875 41.347656 37.6875 38.152344 C 36.097656 34.402344 32.714844 33.050781 29.0625 32.261719 C 25.824219 31.5625 23.027344 32.542969 20.574219 34.722656 C 18.832031 36.269531 17.550781 38.101562 16.667969 40.253906 C 15.125 44.03125 14.785156 47.953125 15.917969 51.816406 C 16.921875 55.230469 18.792969 58.285156 21.09375 61.039062 C 22.574219 62.816406 24.46875 63.890625 26.703125 64.417969 C 28.988281 64.957031 31.265625 64.953125 33.59375 64.65625 C 39.601562 63.890625 43.671875 60.777344 45.75 55.0625 C 46.507812 52.992188 46.765625 50.871094 46.667969 48.6875 C 46.425781 43.320312 45.65625 38.121094 42.429688 33.570312 C 40.046875 30.214844 37.121094 27.480469 33.449219 25.675781 C 28.347656 23.164062 23.140625 23.507812 17.996094 25.667969 C 15.558594 26.691406 13.117188 27.710938 10.75 28.878906 C 9.613281 29.441406 8.5 30.207031 7.632812 31.125 C 4.9375 33.972656 3.019531 37.339844 1.632812 40.996094 C 1.320312 41.820312 1.253906 42.75 1.164062 43.640625 C 1.136719 43.894531 1.429688 44.175781 1.574219 44.445312 C 1.789062 44.207031 2.113281 44.007812 2.203125 43.730469 C 2.511719 42.761719 2.644531 41.730469 3.011719 40.785156 C 4.148438 37.882812 5.773438 35.246094 7.757812 32.847656 C 8.984375 31.359375 10.554688 30.332031 12.347656 29.605469 C 14.265625 28.828125 16.152344 27.972656 18.03125 27.101562 C 22.21875 25.160156 26.507812 24.675781 30.910156 26.214844 C 37.640625 28.574219 41.855469 33.4375 44.058594 40.039062 C 45.566406 44.546875 46.003906 49.203125 44.597656 53.882812 C 43.300781 58.203125 40.921875 61.535156 36.3125 62.679688 C 34.632812 63.097656 32.882812 63.253906 31.15625 63.417969 C 29.289062 63.589844 27.699219 62.851562 26.285156 61.664062 C 23.820312 59.59375 21.933594 57.09375 20.730469 54.117188 C 20.421875 53.355469 20.320312 52.5 20.214844 51.675781 C 20.113281 50.863281 20.257812 50.007812 20.074219 49.226562 C 19.339844 46.101562 19.167969 43.054688 20.839844 40.140625 C 21.152344 39.601562 21.40625 39.011719 21.5625 38.414062 C 21.644531 38.097656 21.453125 37.707031 21.386719 37.351562 C 21.058594 37.484375 20.578125 37.519531 20.425781 37.761719 C 19.933594 38.566406 19.484375 39.417969 19.148438 40.300781 C 18.0625 43.15625 17.644531 46.167969 17.964844 49.164062 C 18.46875 53.898438 20.628906 57.90625 24.097656 61.1875 C 24.558594 61.628906 25.066406 62.023438 25.554688 62.4375 C 25.484375 62.523438 25.417969 62.609375 25.347656 62.695312 C 25.050781 62.527344 24.746094 62.371094 24.460938 62.183594 C 22.84375 61.128906 21.550781 59.753906 20.574219 58.105469 C 18.425781 54.480469 16.382812 50.886719 16.621094 46.367188 C 16.863281 41.816406 18.789062 38.222656 22.039062 35.292969 C 25.066406 32.5625 31.25 32.84375 34.109375 35.800781 C 37.363281 39.164062 38.734375 43.25 38.125 47.921875 C 38.0625 48.425781 37.621094 49.015625 37.183594 49.3125 C 36.34375 49.875 35.359375 50.214844 34.476562 50.714844 C 33.042969 51.527344 31.730469 51.351562 30.441406 50.398438 C 27.625 48.308594 26.402344 42.984375 28.050781 39.902344 C 28.625 38.828125 29.226562 38.523438 30.441406 38.597656 C 30.722656 38.613281 31.015625 38.445312 31.300781 38.359375 C 31.132812 38.046875 31.046875 37.621094 30.789062 37.4375 C 29.894531 36.800781 28.894531 36.960938 28.023438 37.792969 C 26.84375 38.925781 26.207031 40.363281 26.074219 41.949219 C 25.796875 45.292969 26.621094 48.335938 28.972656 50.835938 C 30.445312 52.398438 32.195312 52.855469 34.214844 51.96875 C 34.957031 51.640625 35.679688 51.273438 36.417969 50.941406 C 36.601562 50.859375 36.8125 50.835938 37.011719 50.785156 C 37.046875 50.855469 37.082031 50.925781 37.117188 50.996094 C 36.875 51.191406 36.65625 51.429688 36.386719 51.566406 C 35.664062 51.929688 34.917969 52.246094 34.183594 52.589844 C 33.707031 52.8125 33.253906 53.058594 33.464844 53.867188 Z M 46.625 14.910156 C 46.539062 14.996094 46.457031 15.082031 46.371094 15.167969 C 46.105469 14.957031 45.824219 14.761719 45.578125 14.527344 C 43.949219 13 42.257812 11.5625 40.207031 10.621094 C 37.066406 9.183594 33.976562 7.621094 30.777344 6.339844 C 27.914062 5.199219 24.960938 4.253906 21.984375 3.464844 C 20.933594 3.1875 19.691406 3.585938 18.550781 3.773438 C 18.339844 3.808594 18.199219 4.304688 18.03125 4.585938 C 18.3125 4.675781 18.605469 4.871094 18.875 4.839844 C 20.945312 4.605469 23.011719 4.738281 24.917969 5.511719 C 30.117188 7.621094 35.265625 9.855469 40.425781 12.058594 C 40.785156 12.210938 41.089844 12.488281 41.574219 12.816406 C 41.269531 12.820312 41.175781 12.847656 41.101562 12.820312 C 40.648438 12.660156 40.195312 12.492188 39.75 12.320312 C 34.988281 10.476562 30.253906 8.574219 25.464844 6.820312 C 22.980469 5.90625 20.386719 5.316406 17.695312 5.566406 C 17.292969 5.601562 16.863281 5.722656 16.523438 5.933594 C 16.324219 6.054688 16.277344 6.425781 16.164062 6.683594 C 16.421875 6.777344 16.699219 6.988281 16.933594 6.945312 C 19.214844 6.546875 21.464844 6.8125 23.597656 7.578125 C 29.613281 9.738281 35.59375 12.007812 41.578125 14.253906 C 45.8125 15.839844 49.378906 18.230469 51.417969 22.46875 C 51.546875 22.730469 51.996094 22.835938 52.292969 23.015625 C 52.371094 22.644531 52.488281 22.273438 52.503906 21.898438 C 52.511719 21.71875 52.339844 21.519531 52.226562 21.34375 C 50.976562 19.4375 49.753906 17.507812 48.453125 15.632812 C 47.699219 14.550781 46.847656 13.53125 45.988281 12.527344 C 44.226562 10.460938 42.109375 8.847656 39.59375 7.800781 C 35.128906 5.945312 30.667969 4.085938 26.179688 2.296875 C 25.191406 1.902344 24.097656 1.75 23.035156 1.566406 C 22.804688 1.527344 22.511719 1.832031 22.246094 1.976562 C 22.417969 2.230469 22.535156 2.574219 22.773438 2.714844 C 23.097656 2.90625 23.511719 2.941406 23.886719 3.046875 C 24.839844 3.3125 25.820312 3.5 26.738281 3.855469 C 29.734375 5.011719 32.722656 6.199219 35.691406 7.425781 C 38.722656 8.679688 41.71875 10.03125 44.1875 12.253906 C 45.078125 13.054688 45.816406 14.019531 46.625 14.910156 Z M 31.015625 16.832031 C 30.996094 16.890625 30.976562 16.945312 30.953125 17.003906 C 30.476562 16.875 30.003906 16.730469 29.523438 16.621094 C 27.335938 16.117188 25.167969 15.398438 22.949219 15.179688 C 18.527344 14.742188 14.191406 15.378906 10.054688 17.070312 C 8.640625 17.648438 7.386719 18.484375 6.589844 19.828125 C 6.398438 20.148438 6.46875 20.632812 6.421875 21.039062 C 6.800781 20.90625 7.296875 20.882812 7.542969 20.621094 C 8.671875 19.40625 10 18.550781 11.566406 17.996094 C 16.84375 16.121094 22.164062 15.773438 27.597656 17.296875 C 29.992188 17.964844 32.480469 18.34375 34.832031 19.136719 C 38.273438 20.296875 41.289062 22.320312 44.246094 24.382812 C 46.953125 26.273438 48.566406 29 49.707031 32.027344 C 50.25 33.460938 50.707031 34.925781 51.265625 36.347656 C 52.605469 39.753906 54.210938 43.070312 54.457031 46.816406 C 54.480469 47.183594 54.882812 47.53125 55.105469 47.886719 C 55.25 47.84375 55.394531 47.804688 55.539062 47.761719 C 55.585938 47.105469 55.769531 46.417969 55.648438 45.792969 C 55.351562 44.234375 55.039062 42.660156 54.507812 41.171875 C 53.324219 37.863281 51.949219 34.625 50.757812 31.320312 C 49.351562 27.421875 46.882812 24.457031 43.335938 22.34375 C 40.988281 20.945312 38.683594 19.476562 36.328125 18.097656 C 34.992188 17.3125 33.605469 16.605469 32.207031 15.925781 C 31.484375 15.574219 30.675781 15.390625 29.933594 15.070312 C 25.832031 13.3125 21.589844 12.5625 17.164062 13.363281 C 14.71875 13.808594 12.292969 14.363281 9.875 14.949219 C 9.1875 15.113281 8.078125 15.503906 8.410156 16.292969 C 8.75 17.105469 9.710938 16.445312 10.382812 16.179688 C 11.105469 15.894531 11.8125 15.539062 12.5625 15.359375 C 18.632812 13.914062 24.601562 14.132812 30.425781 16.519531 C 30.628906 16.601562 30.820312 16.726562 31.015625 16.832031 Z M 47.894531 48.554688 C 47.839844 48.566406 47.789062 48.578125 47.738281 48.589844 C 47.691406 49.667969 47.652344 50.75 47.597656 51.832031 C 47.347656 56.867188 44.207031 60.113281 40.605469 63.066406 C 40.378906 63.253906 40.085938 63.386719 39.800781 63.464844 C 38.050781 63.96875 36.285156 64.4375 34.535156 64.945312 C 34.253906 65.027344 34.019531 65.265625 33.761719 65.433594 C 34.050781 65.585938 34.351562 65.890625 34.625 65.867188 C 37.117188 65.65625 39.65625 65.417969 41.734375 63.875 C 44.171875 62.070312 46.050781 59.714844 47.6875 57.167969 C 47.859375 56.898438 47.960938 56.566406 48.035156 56.25 C 49.957031 48.28125 49.082031 40.664062 44.890625 33.578125 C 41.792969 28.34375 37.597656 24.378906 31.441406 22.898438 C 24.882812 21.324219 18.730469 22.421875 12.726562 25.320312 C 8.125 27.542969 5.101562 31.363281 2.03125 35.183594 C 1.738281 35.550781 1.328125 36.128906 1.945312 36.492188 C 2.160156 36.617188 2.808594 36.277344 3.074219 35.984375 C 3.980469 34.984375 4.8125 33.914062 5.664062 32.863281 C 11.007812 26.273438 18.050781 23.285156 26.390625 23.511719 C 34.191406 23.722656 40.820312 27.445312 44.785156 36.441406 C 45.472656 38.003906 46.277344 39.554688 46.671875 41.195312 C 47.246094 43.609375 47.5 46.097656 47.894531 48.554688 Z M 22.960938 10.859375 C 22.957031 10.980469 22.949219 11.105469 22.945312 11.226562 C 22.773438 11.257812 22.597656 11.3125 22.421875 11.320312 C 21.972656 11.339844 21.519531 11.371094 21.074219 11.34375 C 17.671875 11.144531 14.355469 11.53125 11.140625 12.699219 C 10.839844 12.8125 10.503906 12.929688 10.28125 13.144531 C 10.117188 13.300781 10.007812 13.65625 10.074219 13.855469 C 10.121094 13.996094 10.515625 14.117188 10.734375 14.085938 C 11.265625 14.007812 11.789062 13.859375 12.308594 13.703125 C 19.3125 11.617188 26.121094 12.097656 32.789062 15.105469 C 36.523438 16.789062 40.101562 18.742188 43.53125 20.972656 C 47.191406 23.355469 50.082031 26.445312 52.003906 30.359375 C 53.269531 32.933594 54.046875 35.675781 54.339844 38.550781 C 54.398438 39.132812 54.507812 39.878906 55.304688 39.785156 C 55.492188 39.761719 55.777344 38.847656 55.683594 38.417969 C 55.203125 36.222656 54.796875 33.988281 54.035156 31.882812 C 52.167969 26.699219 48.667969 22.757812 44.09375 19.769531 C 39.09375 16.503906 33.832031 13.761719 28.085938 12.019531 C 27.464844 11.832031 26.921875 11.402344 26.320312 11.144531 C 25.253906 10.691406 24.199219 10.054688 23.082031 9.902344 C 20.859375 9.601562 18.597656 9.515625 16.347656 9.46875 C 15.25 9.445312 14.128906 9.632812 13.046875 9.871094 C 12.066406 10.085938 11.742188 10.703125 12.007812 11.730469 C 13.691406 10.8125 15.5 10.503906 17.382812 10.59375 C 19.242188 10.6875 21.101562 10.769531 22.960938 10.859375 Z M 17.5625 7.164062 C 17.546875 7.246094 17.53125 7.324219 17.519531 7.402344 C 17.339844 7.40625 17.152344 7.386719 16.976562 7.417969 C 16.214844 7.554688 15.449219 7.679688 14.699219 7.875 C 14.539062 7.917969 14.449219 8.234375 14.324219 8.421875 C 14.519531 8.53125 14.703125 8.664062 14.90625 8.734375 C 15.039062 8.78125 15.203125 8.726562 15.351562 8.714844 C 18.199219 8.496094 21.019531 8.707031 23.730469 9.59375 C 26.75 10.582031 29.722656 11.710938 32.691406 12.84375 C 34.824219 13.652344 36.980469 14.429688 39.007812 15.464844 C 44.542969 18.289062 49.40625 21.902344 52.414062 27.5625 C 52.585938 27.890625 53.082031 28.046875 53.425781 28.28125 C 53.476562 27.894531 53.699219 27.40625 53.546875 27.128906 C 52.777344 25.753906 52.082031 24.277344 51.046875 23.117188 C 47.496094 19.132812 43.429688 15.730469 38.429688 13.734375 C 33.527344 11.773438 28.542969 10.015625 23.535156 8.34375 C 21.628906 7.707031 19.558594 7.542969 17.5625 7.164062 Z M 13.867188 30.246094 C 13.40625 30.195312 13.289062 30.164062 13.175781 30.179688 C 13.03125 30.199219 12.878906 30.238281 12.75 30.308594 C 10.109375 31.726562 7.691406 33.507812 6.339844 36.195312 C 4.875 39.101562 3.617188 42.15625 2.664062 45.265625 C 1.285156 49.765625 1.492188 54.222656 4.097656 58.363281 C 4.542969 59.070312 4.789062 59.894531 5.183594 60.636719 C 5.949219 62.054688 6.734375 63.464844 7.558594 64.855469 C 7.746094 65.175781 8.078125 65.460938 8.414062 65.632812 C 8.621094 65.738281 8.953125 65.609375 9.230469 65.585938 C 9.1875 65.34375 9.203125 65.066406 9.085938 64.871094 C 8.625 64.101562 8.042969 63.394531 7.640625 62.59375 C 6.457031 60.238281 5.339844 57.847656 4.1875 55.472656 C 3.214844 53.457031 3.007812 51.320312 3.238281 49.136719 C 3.683594 44.960938 5.191406 41.105469 7.0625 37.394531 C 7.589844 36.34375 8.367188 35.363281 9.214844 34.539062 C 10.414062 33.375 11.800781 32.402344 13.078125 31.316406 C 13.359375 31.078125 13.53125 30.710938 13.867188 30.246094 Z M 33.957031 45.261719 C 33.867188 45.308594 33.777344 45.355469 33.6875 45.398438 C 33.417969 44.890625 33.101562 44.398438 32.886719 43.863281 C 32.460938 42.808594 32.117188 41.71875 31.691406 40.664062 C 31.296875 39.695312 30.628906 39.289062 29.851562 39.457031 C 29.0625 39.625 28.6875 40.25 28.765625 41.363281 C 28.878906 42.996094 29.535156 44.453125 30.4375 45.777344 C 30.988281 46.582031 31.652344 47.355469 32.417969 47.957031 C 33.449219 48.769531 34.726562 48.296875 35.152344 47.046875 C 35.304688 46.597656 35.375 46.109375 35.390625 45.632812 C 35.484375 43.167969 34.46875 41.085938 33.015625 39.191406 C 32.820312 38.933594 32.21875 38.710938 31.972656 38.828125 C 31.4375 39.082031 31.683594 39.589844 31.929688 39.984375 C 32.308594 40.59375 32.773438 41.15625 33.09375 41.792969 C 33.640625 42.878906 34.265625 43.964844 33.957031 45.261719 Z M 27.785156 0.542969 C 27.511719 0.785156 27.25 1.019531 26.984375 1.253906 C 27.210938 1.484375 27.398438 1.800781 27.671875 1.925781 C 28.128906 2.136719 28.664062 2.171875 29.128906 2.371094 C 32.796875 3.929688 36.464844 5.5 40.117188 7.09375 C 41.929688 7.882812 43.484375 9.027344 44.785156 10.539062 C 45.589844 11.46875 46.472656 12.332031 47.367188 13.179688 C 47.613281 13.414062 48.027344 13.472656 48.363281 13.613281 C 48.304688 13.234375 48.347656 12.796875 48.167969 12.492188 C 47.882812 12.007812 47.449219 11.609375 47.070312 11.1875 C 46.730469 10.808594 46.339844 10.46875 46.027344 10.066406 C 44.675781 8.324219 42.988281 6.992188 41 6.070312 C 37.707031 4.539062 34.402344 3.042969 31.074219 1.59375 C 30.066406 1.152344 28.972656 0.914062 27.785156 0.542969 Z M 21.617188 51.648438 C 21.507812 51.671875 21.398438 51.699219 21.289062 51.726562 C 21.296875 52.15625 21.210938 52.617188 21.328125 53.015625 C 22.425781 56.785156 24.453125 59.785156 28.203125 61.4375 C 32 63.109375 35.523438 62.59375 38.890625 60.375 C 39.3125 60.097656 39.675781 59.714844 39.988281 59.320312 C 40.125 59.15625 40.175781 58.703125 40.070312 58.613281 C 39.878906 58.453125 39.53125 58.398438 39.265625 58.433594 C 39.0625 58.464844 38.882812 58.695312 38.699219 58.847656 C 33.945312 62.875 26.683594 61.414062 23.890625 55.859375 C 23.320312 54.734375 22.777344 53.59375 22.203125 52.472656 C 22.050781 52.175781 21.816406 51.921875 21.617188 51.648438 Z M 35.242188 0.6875 C 34.675781 0.953125 34.265625 1.144531 33.855469 1.335938 C 34.117188 1.617188 34.324219 2 34.648438 2.171875 C 36.371094 3.074219 38.117188 3.945312 39.878906 4.777344 C 40.164062 4.914062 40.574219 4.785156 40.929688 4.777344 C 40.800781 4.472656 40.753906 4.078125 40.53125 3.886719 C 39.691406 3.164062 38.839844 2.429688 37.898438 1.855469 C 37.078125 1.355469 36.125 1.066406 35.242188 0.6875 Z M 49.285156 64.945312 C 49.199219 64.761719 49.144531 64.464844 49.019531 64.429688 C 48.835938 64.375 48.53125 64.445312 48.390625 64.578125 C 47.292969 65.601562 46.199219 66.628906 45.167969 67.714844 C 44.941406 67.949219 44.96875 68.421875 44.882812 68.785156 C 45.269531 68.792969 45.808594 68.96875 46.023438 68.777344 C 47.050781 67.878906 48.007812 66.894531 48.945312 65.898438 C 49.148438 65.683594 49.167969 65.292969 49.285156 64.945312 Z M 6.558594 49.28125 C 5.582031 49.992188 5.355469 51.179688 5.777344 52.214844 C 5.925781 52.585938 6.285156 52.871094 6.546875 53.195312 C 6.667969 53.132812 6.785156 53.074219 6.90625 53.011719 C 6.789062 51.765625 6.675781 50.523438 6.558594 49.28125 Z M 6.558594 49.28125 "/></g></g></g><g clip-rule="nonzero" clip-path="url(#354f7ca80a)"><g clip-rule="nonzero" clip-path="url(#3b534cefc9)"><g clip-rule="nonzero" clip-path="url(#9dc1f5d16a)"><path style=" stroke:none;fill-rule:evenodd;fill:#ffffff;fill-opacity:1;" d="M 11.652344 52.574219 C 11.976562 51.6875 11.175781 50.613281 12.15625 49.6875 C 12.328125 49.984375 12.515625 50.183594 12.570312 50.414062 C 12.859375 51.644531 13.101562 52.859375 12.453125 54.097656 C 12.265625 54.457031 12.289062 55.058594 12.453125 55.453125 C 14.59375 60.628906 17.949219 64.796875 22.796875 67.691406 C 25.152344 69.101562 27.636719 70.046875 30.460938 69.972656 C 32.828125 69.910156 35.207031 70.125 37.5625 69.964844 C 38.8125 69.878906 40.03125 69.273438 41.242188 68.851562 C 41.574219 68.738281 41.832031 68.429688 42.125 68.210938 C 42.089844 68.125 42.050781 68.042969 42.015625 67.957031 C 41.597656 68.039062 41.175781 68.113281 40.761719 68.207031 C 39.441406 68.507812 38.132812 68.839844 36.808594 69.113281 C 34.957031 69.496094 33.109375 69.445312 31.257812 69.058594 C 29.464844 68.691406 27.632812 68.46875 25.863281 68.007812 C 24.816406 67.734375 23.722656 67.289062 22.871094 66.632812 C 16.429688 61.671875 12.835938 55.246094 13.082031 46.953125 C 13.136719 45.097656 13.308594 43.226562 13.609375 41.394531 C 14.054688 38.695312 15.589844 36.5 17.46875 34.644531 C 18.839844 33.292969 20.457031 32.132812 22.125 31.164062 C 24.515625 29.777344 27.164062 30.003906 29.777344 30.496094 C 30.21875 30.578125 30.65625 30.710938 31.101562 30.757812 C 35.144531 31.1875 37.691406 33.597656 39.542969 37.007812 C 42.039062 41.613281 42.757812 46.507812 41.992188 51.636719 C 41.648438 53.957031 40.5 55.804688 38.59375 57.269531 C 36.738281 58.6875 34.8125 59.78125 32.457031 60.082031 C 30.105469 60.382812 28.253906 59.351562 26.507812 58.011719 C 26.296875 57.851562 26.316406 57.398438 26.230469 57.082031 C 26.554688 57.0625 26.921875 56.933594 27.199219 57.039062 C 28.421875 57.507812 29.578125 58.21875 30.835938 58.519531 C 33.09375 59.058594 35.203125 58.207031 36.914062 56.886719 C 38.308594 55.8125 39.308594 54.226562 40.457031 52.847656 C 40.625 52.648438 40.65625 52.335938 40.75 52.074219 C 40.679688 52.027344 40.605469 51.976562 40.535156 51.929688 C 40.253906 52.207031 39.953125 52.472656 39.691406 52.769531 C 37.746094 55.027344 35.140625 56.179688 32.390625 57.011719 C 30.398438 57.613281 28.835938 57.046875 27.867188 55.199219 C 25.738281 51.136719 23.976562 46.917969 23.746094 42.25 C 23.65625 40.410156 23.730469 38.542969 25.261719 37.167969 C 25.769531 36.714844 26.347656 36.339844 26.84375 35.722656 C 26.523438 35.820312 26.183594 35.878906 25.878906 36.015625 C 24.347656 36.714844 23.726562 38.128906 23.242188 39.582031 C 22.808594 40.886719 22.488281 42.238281 22.207031 43.585938 C 21.945312 44.832031 22.132812 46.042969 22.832031 47.136719 C 23.15625 47.644531 23.445312 48.179688 23.816406 48.648438 C 25.234375 50.417969 25.515625 52.664062 26.34375 54.679688 C 26.449219 54.933594 26.226562 55.324219 26.160156 55.648438 C 25.867188 55.566406 25.410156 55.574219 25.304688 55.386719 C 23.886719 52.867188 21.519531 50.878906 20.949219 47.890625 C 20.449219 45.269531 20.769531 42.664062 21.519531 40.140625 C 21.886719 38.894531 22.394531 37.636719 23.097656 36.554688 C 24.359375 34.628906 26.324219 34.152344 28.496094 34.554688 C 30.738281 34.972656 32.945312 35.613281 34.425781 37.484375 C 36.648438 40.300781 37.671875 43.515625 36.828125 47.09375 C 36.050781 50.382812 33.230469 51.304688 30.554688 49.226562 C 28.734375 47.816406 27.988281 45.878906 27.949219 43.628906 C 27.949219 43.441406 28.035156 43.25 28.082031 43.058594 C 28.175781 43.03125 28.265625 43 28.359375 42.972656 C 28.609375 43.507812 28.917969 44.023438 29.09375 44.582031 C 29.523438 45.96875 30.21875 47.171875 31.335938 48.105469 C 33.089844 49.574219 34.984375 49.136719 35.648438 46.941406 C 36.515625 44.066406 35.808594 41.394531 33.914062 39.101562 C 33.007812 38.003906 31.925781 37.015625 30.472656 36.621094 C 29.011719 36.226562 27.730469 36.601562 26.6875 37.65625 C 25.058594 39.300781 24.6875 41.386719 25.140625 43.519531 C 25.644531 45.886719 26.421875 48.199219 27.160156 50.511719 C 27.484375 51.53125 28.261719 52.164062 29.304688 52.546875 C 30.507812 52.992188 31.632812 53.664062 32.847656 54.089844 C 33.546875 54.335938 34.390625 54.5 35.089844 54.34375 C 38.203125 53.648438 40.613281 50.664062 40.847656 47.394531 C 41.0625 44.460938 40.296875 41.742188 39.039062 39.132812 C 38.789062 38.617188 38.539062 38.105469 38.289062 37.59375 C 36.527344 34.03125 33.613281 32.144531 29.707031 31.71875 C 28.75 31.617188 27.792969 31.5 26.832031 31.453125 C 24.628906 31.347656 22.703125 32.132812 20.96875 33.417969 C 18.636719 35.148438 16.914062 37.40625 15.492188 39.910156 C 15.347656 40.171875 15.246094 40.464844 15.1875 40.757812 C 14.226562 45.617188 13.722656 50.496094 15.773438 55.199219 C 16.566406 57.019531 17.714844 58.714844 18.890625 60.328125 C 20 61.855469 21.359375 63.195312 22.601562 64.628906 C 23.449219 65.605469 24.46875 66.28125 25.71875 66.671875 C 31.003906 68.335938 36.304688 68.664062 41.550781 66.65625 C 47.257812 64.476562 50.621094 60.433594 51.273438 54.183594 C 51.792969 49.1875 51.457031 44.265625 50.429688 39.394531 C 50.113281 37.90625 49.246094 36.527344 48.574219 35.128906 C 47.695312 33.289062 46.628906 31.527344 45.871094 29.640625 C 44.839844 27.058594 42.796875 25.644531 40.503906 24.433594 C 39.992188 24.164062 39.453125 23.941406 38.929688 23.695312 C 38.871094 23.773438 38.816406 23.851562 38.761719 23.929688 C 39.019531 24.167969 39.246094 24.457031 39.542969 24.628906 C 42.113281 26.148438 44.226562 28.078125 45.410156 30.902344 C 45.605469 31.367188 45.890625 31.8125 46.203125 32.207031 C 49.121094 35.875 50.09375 40.214844 50.507812 44.726562 C 50.726562 47.121094 50.867188 49.527344 50.917969 51.929688 C 51.050781 58.105469 48.050781 62.425781 42.789062 65.351562 C 38.976562 67.46875 34.921875 68.039062 30.660156 67.171875 C 28.984375 66.832031 27.308594 66.480469 25.640625 66.085938 C 25.050781 65.949219 24.167969 65.757812 24.382812 64.996094 C 24.582031 64.277344 25.402344 64.648438 25.964844 64.765625 C 28.289062 65.238281 30.59375 65.847656 32.9375 66.191406 C 39.777344 67.199219 47.542969 62.171875 49.167969 55.753906 C 49.371094 54.945312 49.484375 54.097656 49.523438 53.261719 C 49.742188 48.492188 49.503906 43.742188 48.175781 39.136719 C 47.722656 37.558594 46.777344 36.113281 46.007812 34.632812 C 45.507812 33.675781 44.796875 32.816406 44.394531 31.824219 C 43.230469 28.949219 41.191406 26.9375 38.523438 25.472656 C 34.988281 23.535156 31.214844 22.195312 27.273438 21.484375 C 23.417969 20.785156 19.691406 21.777344 16.039062 22.992188 C 12.957031 24.015625 10.371094 25.84375 7.960938 27.964844 C 6.609375 29.160156 5.261719 30.359375 3.859375 31.488281 C 3.523438 31.753906 2.972656 31.75 2.523438 31.871094 C 2.703125 31.398438 2.75 30.769531 3.085938 30.476562 C 6.230469 27.726562 9.371094 24.949219 13.101562 23 C 14.316406 22.363281 15.667969 21.984375 16.953125 21.484375 C 17.28125 21.359375 17.609375 21.230469 17.9375 21.101562 C 17.925781 21.019531 17.917969 20.9375 17.90625 20.859375 C 17.527344 20.867188 17.101562 20.761719 16.777344 20.898438 C 15.175781 21.574219 13.53125 22.191406 12.042969 23.066406 C 9.976562 24.28125 8.039062 25.71875 6.039062 27.046875 C 5.542969 27.378906 5.03125 27.71875 4.476562 27.917969 C 4.222656 28.007812 3.851562 27.765625 3.53125 27.675781 C 3.644531 27.371094 3.667969 26.914062 3.882812 26.789062 C 7.5625 24.636719 11.167969 22.324219 14.988281 20.460938 C 19.027344 18.492188 23.386719 18.785156 27.609375 19.957031 C 30.347656 20.714844 32.984375 21.847656 35.664062 22.816406 C 36.175781 23 36.679688 23.195312 37.191406 23.386719 C 37.234375 23.304688 37.28125 23.21875 37.328125 23.136719 C 37.070312 22.921875 36.839844 22.628906 36.542969 22.503906 C 31.097656 20.179688 25.5625 18.160156 19.496094 18.722656 C 16.03125 19.046875 12.890625 20.484375 9.839844 22.050781 C 8.441406 22.769531 7.203125 23.792969 5.867188 24.640625 C 5.613281 24.800781 5.238281 24.773438 4.921875 24.832031 C 4.917969 24.480469 4.804688 24.066406 4.945312 23.789062 C 5.125 23.433594 5.484375 23.140625 5.824219 22.902344 C 12.578125 18.144531 19.84375 15.863281 28.089844 18.300781 C 29.988281 18.859375 31.902344 19.386719 33.816406 19.902344 C 37.464844 20.882812 40.746094 22.605469 43.757812 24.851562 C 44.46875 25.382812 45.191406 26.007812 45.648438 26.753906 C 49.28125 32.671875 52.277344 38.886719 53.859375 45.683594 C 54.445312 48.1875 55.003906 50.738281 54.6875 53.359375 C 54.605469 54.042969 54.527344 54.742188 54.3125 55.390625 C 54.21875 55.683594 53.789062 55.863281 53.507812 56.09375 C 53.382812 55.796875 53.148438 55.5 53.152344 55.207031 C 53.179688 53.109375 53.277344 51.011719 53.304688 48.910156 C 53.308594 48.339844 53.144531 47.765625 53.058594 47.191406 C 52.96875 47.199219 52.878906 47.203125 52.789062 47.210938 C 52.777344 47.570312 52.765625 47.929688 52.75 48.292969 C 52.65625 50.785156 52.664062 53.285156 52.441406 55.769531 C 52.113281 59.453125 49.984375 62.207031 47.457031 64.695312 C 45.984375 66.148438 44.492188 67.578125 42.96875 68.972656 C 42.472656 69.425781 41.886719 69.824219 41.273438 70.097656 C 37.621094 71.730469 33.8125 71.628906 29.9375 71.160156 C 20.136719 69.980469 14.046875 64.359375 10.769531 55.316406 C 9.804688 52.648438 9.84375 49.921875 10.125 47.128906 C 10.480469 43.597656 11.027344 40.144531 12.855469 37.042969 C 15.792969 32.0625 19.925781 28.691406 25.84375 28.128906 C 27.589844 27.960938 29.402344 28.464844 31.183594 28.675781 C 31.613281 28.726562 32.039062 28.847656 32.46875 28.9375 C 32.503906 28.851562 32.539062 28.765625 32.578125 28.683594 C 32.175781 28.476562 31.792969 28.222656 31.371094 28.070312 C 26.46875 26.304688 21.921875 27.011719 17.722656 30.070312 C 17.285156 30.390625 16.867188 30.742188 16.414062 31.035156 C 14.292969 32.414062 12.792969 34.203125 11.792969 36.605469 C 9.894531 41.15625 8.671875 45.816406 8.800781 50.746094 C 8.953125 56.421875 11.609375 61.097656 15.085938 65.367188 C 15.675781 66.097656 16.515625 66.652344 17.308594 67.183594 C 18.804688 68.191406 20.324219 69.167969 21.882812 70.066406 C 22.621094 70.492188 23.457031 70.847656 24.289062 71.007812 C 27.242188 71.5625 30.203125 72.089844 33.175781 72.476562 C 34.3125 72.625 35.5 72.367188 36.664062 72.289062 C 36.871094 72.277344 37.105469 72.15625 37.28125 72.21875 C 37.585938 72.332031 37.855469 72.546875 38.140625 72.71875 C 37.929688 72.941406 37.757812 73.269531 37.496094 73.375 C 35.894531 74.011719 34.222656 74.121094 32.53125 73.839844 C 29.746094 73.378906 26.957031 72.925781 24.1875 72.386719 C 23.347656 72.222656 22.507812 71.890625 21.761719 71.46875 C 20.066406 70.503906 18.4375 69.421875 16.769531 68.40625 C 14.933594 67.289062 13.4375 65.824219 12.351562 63.984375 C 10.335938 60.570312 8.226562 57.195312 7.492188 53.199219 C 6.992188 50.476562 7.433594 47.808594 7.839844 45.132812 C 8.230469 42.570312 8.882812 40.082031 10.089844 37.765625 C 10.191406 37.566406 10.214844 37.328125 10.277344 37.109375 C 10.191406 37.066406 10.101562 37.019531 10.015625 36.976562 C 9.421875 38.082031 8.722656 39.140625 8.265625 40.300781 C 7.621094 41.941406 7.160156 43.652344 6.617188 45.335938 C 6.214844 46.589844 5.835938 47.859375 5.386719 49.101562 C 4.867188 50.535156 4.898438 51.886719 5.605469 53.277344 C 6.886719 55.789062 8.085938 58.34375 9.316406 60.886719 C 11.847656 66.121094 15.941406 69.792969 20.949219 72.570312 C 21.320312 72.773438 21.5625 73.203125 21.863281 73.53125 C 21.398438 73.582031 20.882812 73.789062 20.480469 73.65625 C 19.808594 73.4375 19.148438 73.078125 18.585938 72.644531 C 16.800781 71.269531 15.035156 69.859375 13.308594 68.414062 C 10.265625 65.871094 8.484375 62.484375 6.953125 58.917969 C 6.3125 57.429688 5.589844 55.972656 4.808594 54.554688 C 3.742188 52.605469 3.398438 50.660156 4.171875 48.5 C 5.367188 45.167969 6.429688 41.789062 7.582031 38.445312 C 7.765625 37.914062 8.101562 37.429688 8.410156 36.953125 C 9.792969 34.804688 11.625 33.089844 13.675781 31.601562 C 15.570312 30.226562 17.335938 28.589844 19.402344 27.566406 C 24.988281 24.808594 30.5625 25.472656 35.382812 29.167969 C 40.257812 32.902344 43.308594 38.007812 44.230469 44.234375 C 44.644531 47.019531 44.808594 49.792969 44.359375 52.582031 C 44.070312 54.351562 43.347656 55.910156 42.078125 57.195312 C 41.871094 57.40625 41.644531 57.644531 41.378906 57.746094 C 41.101562 57.847656 40.765625 57.800781 40.457031 57.816406 C 40.476562 57.515625 40.4375 57.191406 40.539062 56.921875 C 40.636719 56.648438 40.84375 56.394531 41.0625 56.195312 C 42.902344 54.507812 43.363281 52.289062 43.359375 49.960938 C 43.351562 46.386719 42.886719 42.851562 41.4375 39.566406 C 40.539062 37.523438 39.289062 35.628906 38.121094 33.714844 C 37.789062 33.167969 37.261719 32.6875 36.722656 32.332031 C 28.792969 27.144531 20.789062 28.734375 15.339844 35.605469 C 12.730469 38.894531 11.558594 42.789062 11.429688 46.996094 C 11.386719 48.464844 11.207031 49.933594 11.140625 51.402344 C 11.121094 51.808594 11.289062 52.21875 11.371094 52.628906 C 11.464844 52.613281 11.558594 52.59375 11.652344 52.574219 Z M 28.890625 53.632812 C 29.214844 55.085938 30.171875 55.886719 31.136719 55.695312 C 31.382812 55.644531 31.664062 55.417969 31.78125 55.191406 C 31.832031 55.09375 31.566406 54.707031 31.367188 54.617188 C 30.625 54.277344 29.851562 54.007812 28.890625 53.632812 Z M 23.648438 51.167969 C 23.761719 51.097656 23.875 51.03125 23.988281 50.964844 C 23.605469 50.351562 23.226562 49.734375 22.847656 49.121094 C 22.742188 49.183594 22.640625 49.246094 22.539062 49.308594 C 22.910156 49.925781 23.277344 50.546875 23.648438 51.167969 Z M 23.648438 51.167969 "/></g></g></g><g clip-rule="nonzero" clip-path="url(#15627bd3f1)"><g clip-rule="nonzero" clip-path="url(#979e702e18)"><g clip-rule="nonzero" clip-path="url(#42f4d0fdb6)"><path style=" stroke:none;fill-rule:evenodd;fill:#ffffff;fill-opacity:1;" d="M 33.464844 53.867188 C 33.253906 53.058594 33.707031 52.8125 34.183594 52.589844 C 34.917969 52.246094 35.664062 51.929688 36.386719 51.566406 C 36.65625 51.429688 36.875 51.191406 37.117188 50.996094 C 37.082031 50.925781 37.046875 50.855469 37.011719 50.78125 C 36.8125 50.835938 36.601562 50.859375 36.417969 50.941406 C 35.679688 51.273438 34.957031 51.640625 34.214844 51.96875 C 32.195312 52.855469 30.445312 52.398438 28.972656 50.835938 C 26.621094 48.335938 25.796875 45.292969 26.074219 41.949219 C 26.207031 40.363281 26.84375 38.925781 28.023438 37.792969 C 28.894531 36.960938 29.894531 36.800781 30.789062 37.4375 C 31.046875 37.621094 31.132812 38.046875 31.300781 38.359375 C 31.015625 38.445312 30.722656 38.613281 30.441406 38.597656 C 29.226562 38.523438 28.625 38.828125 28.050781 39.902344 C 26.402344 42.984375 27.625 48.308594 30.441406 50.398438 C 31.730469 51.351562 33.042969 51.527344 34.476562 50.714844 C 35.359375 50.214844 36.34375 49.875 37.183594 49.3125 C 37.621094 49.015625 38.0625 48.425781 38.125 47.921875 C 38.734375 43.25 37.363281 39.164062 34.109375 35.800781 C 31.25 32.84375 25.066406 32.5625 22.039062 35.292969 C 18.789062 38.222656 16.863281 41.816406 16.621094 46.367188 C 16.382812 50.886719 18.425781 54.476562 20.574219 58.105469 C 21.550781 59.753906 22.84375 61.128906 24.460938 62.183594 C 24.746094 62.371094 25.050781 62.527344 25.347656 62.695312 C 25.417969 62.609375 25.484375 62.523438 25.554688 62.4375 C 25.066406 62.023438 24.558594 61.628906 24.097656 61.1875 C 20.628906 57.90625 18.46875 53.898438 17.964844 49.164062 C 17.644531 46.167969 18.0625 43.15625 19.148438 40.300781 C 19.484375 39.417969 19.933594 38.566406 20.425781 37.761719 C 20.578125 37.519531 21.058594 37.484375 21.386719 37.351562 C 21.453125 37.707031 21.644531 38.097656 21.5625 38.414062 C 21.40625 39.011719 21.152344 39.601562 20.839844 40.140625 C 19.167969 43.054688 19.339844 46.101562 20.074219 49.222656 C 20.257812 50.007812 20.113281 50.863281 20.214844 51.675781 C 20.320312 52.5 20.421875 53.355469 20.730469 54.117188 C 21.933594 57.09375 23.820312 59.59375 26.285156 61.664062 C 27.699219 62.851562 29.289062 63.589844 31.15625 63.417969 C 32.882812 63.253906 34.632812 63.097656 36.3125 62.679688 C 40.921875 61.535156 43.300781 58.203125 44.597656 53.882812 C 46.003906 49.203125 45.566406 44.546875 44.058594 40.039062 C 41.855469 33.4375 37.640625 28.574219 30.910156 26.214844 C 26.507812 24.675781 22.21875 25.160156 18.03125 27.101562 C 16.152344 27.972656 14.265625 28.828125 12.347656 29.605469 C 10.554688 30.332031 8.984375 31.359375 7.757812 32.84375 C 5.773438 35.246094 4.148438 37.882812 3.011719 40.785156 C 2.644531 41.730469 2.511719 42.761719 2.203125 43.730469 C 2.113281 44.007812 1.789062 44.207031 1.574219 44.445312 C 1.429688 44.175781 1.136719 43.894531 1.164062 43.640625 C 1.253906 42.75 1.320312 41.820312 1.632812 40.996094 C 3.019531 37.339844 4.9375 33.972656 7.632812 31.125 C 8.5 30.207031 9.613281 29.441406 10.75 28.878906 C 13.117188 27.710938 15.558594 26.691406 17.996094 25.667969 C 23.140625 23.507812 28.347656 23.164062 33.449219 25.675781 C 37.121094 27.480469 40.046875 30.214844 42.429688 33.570312 C 45.65625 38.121094 46.425781 43.320312 46.667969 48.6875 C 46.765625 50.871094 46.507812 52.992188 45.75 55.0625 C 43.671875 60.777344 39.601562 63.890625 33.59375 64.65625 C 31.265625 64.953125 28.988281 64.957031 26.703125 64.417969 C 24.46875 63.886719 22.574219 62.816406 21.09375 61.039062 C 18.792969 58.285156 16.921875 55.230469 15.917969 51.816406 C 14.785156 47.953125 15.125 44.03125 16.667969 40.253906 C 17.550781 38.101562 18.832031 36.269531 20.574219 34.722656 C 23.027344 32.542969 25.824219 31.5625 29.0625 32.261719 C 32.714844 33.050781 36.097656 34.402344 37.6875 38.152344 C 39.046875 41.347656 40.058594 44.675781 39.429688 48.222656 C 38.953125 50.890625 37.554688 52.886719 34.832031 53.699219 C 34.398438 53.832031 33.917969 53.816406 33.464844 53.867188 Z M 33.464844 53.867188 "/></g></g></g><g clip-rule="nonzero" clip-path="url(#fb7f9eee5e)"><g clip-rule="nonzero" clip-path="url(#89e8e9f300)"><g clip-rule="nonzero" clip-path="url(#f90255ff8e)"><path style=" stroke:none;fill-rule:evenodd;fill:#ffffff;fill-opacity:1;" d="M 46.625 14.910156 C 45.816406 14.019531 45.078125 13.054688 44.1875 12.253906 C 41.71875 10.03125 38.722656 8.679688 35.691406 7.425781 C 32.722656 6.199219 29.734375 5.011719 26.738281 3.855469 C 25.820312 3.5 24.839844 3.3125 23.886719 3.046875 C 23.511719 2.941406 23.097656 2.90625 22.773438 2.714844 C 22.535156 2.574219 22.417969 2.230469 22.246094 1.976562 C 22.511719 1.832031 22.804688 1.527344 23.035156 1.566406 C 24.097656 1.75 25.191406 1.902344 26.179688 2.296875 C 30.667969 4.085938 35.128906 5.945312 39.59375 7.800781 C 42.109375 8.847656 44.226562 10.460938 45.988281 12.527344 C 46.847656 13.53125 47.699219 14.550781 48.453125 15.632812 C 49.753906 17.507812 50.976562 19.4375 52.226562 21.34375 C 52.339844 21.519531 52.511719 21.71875 52.503906 21.898438 C 52.488281 22.273438 52.371094 22.644531 52.292969 23.015625 C 51.996094 22.835938 51.546875 22.730469 51.417969 22.46875 C 49.378906 18.230469 45.8125 15.839844 41.578125 14.253906 C 35.59375 12.007812 29.613281 9.738281 23.597656 7.578125 C 21.464844 6.8125 19.214844 6.546875 16.933594 6.945312 C 16.699219 6.988281 16.421875 6.777344 16.164062 6.683594 C 16.277344 6.425781 16.324219 6.054688 16.523438 5.933594 C 16.863281 5.722656 17.292969 5.601562 17.695312 5.566406 C 20.386719 5.316406 22.980469 5.90625 25.464844 6.820312 C 30.253906 8.574219 34.988281 10.476562 39.75 12.320312 C 40.195312 12.492188 40.648438 12.660156 41.101562 12.820312 C 41.175781 12.847656 41.269531 12.820312 41.574219 12.816406 C 41.089844 12.488281 40.785156 12.210938 40.425781 12.058594 C 35.265625 9.855469 30.117188 7.621094 24.917969 5.511719 C 23.011719 4.738281 20.945312 4.605469 18.875 4.839844 C 18.605469 4.871094 18.3125 4.675781 18.03125 4.585938 C 18.199219 4.304688 18.335938 3.808594 18.550781 3.773438 C 19.691406 3.585938 20.933594 3.1875 21.984375 3.464844 C 24.960938 4.253906 27.914062 5.199219 30.777344 6.339844 C 33.976562 7.621094 37.066406 9.183594 40.207031 10.621094 C 42.261719 11.5625 43.953125 13 45.578125 14.527344 C 45.824219 14.761719 46.105469 14.957031 46.371094 15.167969 C 46.457031 15.082031 46.539062 14.996094 46.625 14.910156 Z M 46.625 14.910156 "/></g></g></g><g clip-rule="nonzero" clip-path="url(#55eec1bb1e)"><g clip-rule="nonzero" clip-path="url(#40d5f415e0)"><g clip-rule="nonzero" clip-path="url(#ab29fac801)"><path style=" stroke:none;fill-rule:evenodd;fill:#ffffff;fill-opacity:1;" d="M 31.015625 16.832031 C 30.820312 16.726562 30.628906 16.601562 30.425781 16.519531 C 24.601562 14.132812 18.632812 13.914062 12.5625 15.359375 C 11.8125 15.539062 11.105469 15.894531 10.382812 16.179688 C 9.710938 16.445312 8.75 17.105469 8.410156 16.292969 C 8.078125 15.503906 9.1875 15.113281 9.878906 14.949219 C 12.292969 14.363281 14.71875 13.808594 17.164062 13.363281 C 21.589844 12.5625 25.832031 13.3125 29.933594 15.070312 C 30.675781 15.390625 31.484375 15.574219 32.207031 15.925781 C 33.605469 16.605469 34.992188 17.3125 36.328125 18.09375 C 38.683594 19.476562 40.988281 20.945312 43.335938 22.34375 C 46.882812 24.457031 49.351562 27.421875 50.757812 31.320312 C 51.949219 34.625 53.324219 37.863281 54.507812 41.171875 C 55.039062 42.660156 55.351562 44.234375 55.652344 45.792969 C 55.769531 46.417969 55.585938 47.105469 55.539062 47.761719 C 55.394531 47.804688 55.25 47.84375 55.105469 47.886719 C 54.882812 47.53125 54.480469 47.183594 54.457031 46.816406 C 54.210938 43.070312 52.605469 39.753906 51.265625 36.347656 C 50.707031 34.925781 50.25 33.460938 49.707031 32.027344 C 48.566406 29 46.953125 26.273438 44.246094 24.382812 C 41.289062 22.320312 38.273438 20.296875 34.832031 19.136719 C 32.480469 18.34375 29.992188 17.964844 27.597656 17.292969 C 22.167969 15.773438 16.84375 16.121094 11.566406 17.996094 C 10 18.550781 8.671875 19.40625 7.542969 20.621094 C 7.296875 20.882812 6.800781 20.90625 6.421875 21.039062 C 6.46875 20.632812 6.398438 20.148438 6.589844 19.828125 C 7.386719 18.484375 8.640625 17.648438 10.054688 17.070312 C 14.195312 15.378906 18.527344 14.742188 22.949219 15.179688 C 25.167969 15.398438 27.335938 16.117188 29.523438 16.621094 C 30.003906 16.730469 30.476562 16.875 30.953125 17.003906 C 30.976562 16.945312 30.996094 16.890625 31.015625 16.832031 Z M 31.015625 16.832031 "/></g></g></g><g clip-rule="nonzero" clip-path="url(#86f275fbe3)"><g clip-rule="nonzero" clip-path="url(#5de8b42a96)"><g clip-rule="nonzero" clip-path="url(#ccde35f7b9)"><path style=" stroke:none;fill-rule:evenodd;fill:#ffffff;fill-opacity:1;" d="M 47.894531 48.554688 C 47.5 46.097656 47.246094 43.609375 46.671875 41.195312 C 46.277344 39.554688 45.472656 38.003906 44.785156 36.441406 C 40.820312 27.445312 34.191406 23.722656 26.390625 23.511719 C 18.050781 23.285156 11.007812 26.273438 5.664062 32.863281 C 4.8125 33.914062 3.980469 34.984375 3.074219 35.984375 C 2.808594 36.277344 2.160156 36.617188 1.949219 36.492188 C 1.328125 36.128906 1.738281 35.550781 2.03125 35.183594 C 5.101562 31.363281 8.125 27.542969 12.730469 25.320312 C 18.730469 22.421875 24.882812 21.324219 31.441406 22.898438 C 37.597656 24.378906 41.792969 28.34375 44.890625 33.578125 C 49.082031 40.664062 49.957031 48.28125 48.035156 56.25 C 47.960938 56.566406 47.859375 56.898438 47.6875 57.167969 C 46.050781 59.714844 44.171875 62.070312 41.738281 63.875 C 39.65625 65.417969 37.121094 65.65625 34.625 65.867188 C 34.351562 65.890625 34.050781 65.585938 33.761719 65.433594 C 34.019531 65.265625 34.253906 65.027344 34.539062 64.945312 C 36.289062 64.4375 38.050781 63.96875 39.800781 63.464844 C 40.085938 63.382812 40.378906 63.253906 40.605469 63.066406 C 44.207031 60.113281 47.347656 56.867188 47.601562 51.832031 C 47.652344 50.75 47.691406 49.667969 47.738281 48.589844 C 47.789062 48.578125 47.839844 48.566406 47.894531 48.554688 Z M 47.894531 48.554688 "/></g></g></g><g clip-rule="nonzero" clip-path="url(#e9e5d189f1)"><g clip-rule="nonzero" clip-path="url(#c44fddf4ad)"><g clip-rule="nonzero" clip-path="url(#d3e8615d53)"><path style=" stroke:none;fill-rule:evenodd;fill:#ffffff;fill-opacity:1;" d="M 22.960938 10.859375 C 21.101562 10.769531 19.242188 10.6875 17.382812 10.59375 C 15.5 10.503906 13.691406 10.8125 12.007812 11.730469 C 11.742188 10.703125 12.066406 10.085938 13.046875 9.871094 C 14.128906 9.632812 15.25 9.445312 16.347656 9.46875 C 18.597656 9.515625 20.859375 9.601562 23.082031 9.902344 C 24.199219 10.054688 25.253906 10.691406 26.320312 11.144531 C 26.921875 11.402344 27.464844 11.832031 28.085938 12.019531 C 33.832031 13.761719 39.09375 16.503906 44.09375 19.769531 C 48.667969 22.757812 52.167969 26.699219 54.035156 31.882812 C 54.796875 33.988281 55.203125 36.222656 55.683594 38.417969 C 55.773438 38.847656 55.492188 39.761719 55.304688 39.785156 C 54.507812 39.878906 54.398438 39.132812 54.339844 38.550781 C 54.046875 35.675781 53.269531 32.933594 52.003906 30.359375 C 50.082031 26.445312 47.191406 23.355469 43.53125 20.972656 C 40.101562 18.742188 36.523438 16.792969 32.789062 15.105469 C 26.121094 12.097656 19.3125 11.617188 12.308594 13.703125 C 11.789062 13.859375 11.265625 14.007812 10.734375 14.085938 C 10.515625 14.117188 10.121094 13.996094 10.074219 13.855469 C 10.007812 13.65625 10.117188 13.300781 10.28125 13.144531 C 10.503906 12.929688 10.839844 12.8125 11.140625 12.699219 C 14.355469 11.53125 17.671875 11.144531 21.074219 11.34375 C 21.519531 11.371094 21.972656 11.339844 22.421875 11.320312 C 22.597656 11.3125 22.773438 11.257812 22.945312 11.226562 C 22.949219 11.105469 22.957031 10.980469 22.960938 10.859375 Z M 22.960938 10.859375 "/></g></g></g><g clip-rule="nonzero" clip-path="url(#3622aa3979)"><g clip-rule="nonzero" clip-path="url(#ceaacbd4d7)"><g clip-rule="nonzero" clip-path="url(#08c1affc1e)"><path style=" stroke:none;fill-rule:evenodd;fill:#ffffff;fill-opacity:1;" d="M 17.5625 7.164062 C 19.558594 7.542969 21.628906 7.707031 23.535156 8.34375 C 28.542969 10.015625 33.527344 11.773438 38.429688 13.730469 C 43.429688 15.730469 47.496094 19.132812 51.046875 23.117188 C 52.082031 24.277344 52.777344 25.753906 53.546875 27.128906 C 53.699219 27.40625 53.476562 27.894531 53.425781 28.28125 C 53.082031 28.046875 52.585938 27.890625 52.414062 27.5625 C 49.40625 21.902344 44.542969 18.289062 39.007812 15.464844 C 36.980469 14.429688 34.824219 13.652344 32.695312 12.84375 C 29.722656 11.710938 26.75 10.582031 23.730469 9.59375 C 21.019531 8.707031 18.199219 8.496094 15.351562 8.714844 C 15.203125 8.726562 15.039062 8.78125 14.90625 8.734375 C 14.703125 8.664062 14.519531 8.53125 14.324219 8.421875 C 14.449219 8.234375 14.539062 7.917969 14.699219 7.875 C 15.449219 7.679688 16.214844 7.554688 16.976562 7.417969 C 17.152344 7.386719 17.339844 7.40625 17.519531 7.402344 C 17.53125 7.324219 17.546875 7.246094 17.5625 7.164062 Z M 17.5625 7.164062 "/></g></g></g><g clip-rule="nonzero" clip-path="url(#01e11dc98e)"><g clip-rule="nonzero" clip-path="url(#b0786d27cb)"><g clip-rule="nonzero" clip-path="url(#4e3fcaa1c0)"><path style=" stroke:none;fill-rule:evenodd;fill:#ffffff;fill-opacity:1;" d="M 13.867188 30.246094 C 13.53125 30.710938 13.359375 31.078125 13.078125 31.316406 C 11.800781 32.402344 10.414062 33.375 9.214844 34.539062 C 8.367188 35.363281 7.589844 36.34375 7.0625 37.394531 C 5.191406 41.105469 3.683594 44.957031 3.238281 49.136719 C 3.007812 51.320312 3.214844 53.457031 4.1875 55.46875 C 5.339844 57.847656 6.457031 60.238281 7.640625 62.59375 C 8.042969 63.394531 8.625 64.101562 9.085938 64.871094 C 9.203125 65.066406 9.1875 65.34375 9.230469 65.585938 C 8.953125 65.609375 8.621094 65.738281 8.414062 65.632812 C 8.078125 65.457031 7.746094 65.175781 7.558594 64.855469 C 6.734375 63.464844 5.949219 62.054688 5.183594 60.632812 C 4.789062 59.894531 4.542969 59.070312 4.097656 58.363281 C 1.492188 54.222656 1.285156 49.765625 2.664062 45.265625 C 3.617188 42.15625 4.875 39.101562 6.339844 36.195312 C 7.691406 33.507812 10.109375 31.726562 12.75 30.308594 C 12.878906 30.238281 13.03125 30.199219 13.175781 30.179688 C 13.289062 30.164062 13.40625 30.195312 13.867188 30.246094 Z M 13.867188 30.246094 "/></g></g></g><g clip-rule="nonzero" clip-path="url(#2db3f5b074)"><g clip-rule="nonzero" clip-path="url(#b9f849bf29)"><g clip-rule="nonzero" clip-path="url(#f5e273dd43)"><path style=" stroke:none;fill-rule:evenodd;fill:#ffffff;fill-opacity:1;" d="M 33.957031 45.261719 C 34.265625 43.964844 33.640625 42.878906 33.09375 41.792969 C 32.773438 41.15625 32.308594 40.59375 31.929688 39.984375 C 31.683594 39.589844 31.4375 39.082031 31.972656 38.828125 C 32.21875 38.710938 32.820312 38.933594 33.015625 39.191406 C 34.46875 41.085938 35.484375 43.167969 35.390625 45.632812 C 35.375 46.109375 35.304688 46.597656 35.152344 47.046875 C 34.722656 48.296875 33.449219 48.769531 32.417969 47.957031 C 31.652344 47.355469 30.988281 46.582031 30.4375 45.777344 C 29.539062 44.453125 28.878906 42.996094 28.765625 41.363281 C 28.6875 40.25 29.0625 39.625 29.851562 39.457031 C 30.628906 39.289062 31.296875 39.695312 31.691406 40.664062 C 32.117188 41.71875 32.460938 42.808594 32.886719 43.863281 C 33.101562 44.398438 33.417969 44.890625 33.6875 45.398438 C 33.777344 45.355469 33.867188 45.308594 33.957031 45.261719 Z M 33.464844 47.199219 C 33.542969 47.117188 33.625 47.035156 33.703125 46.953125 C 33.578125 46.773438 33.484375 46.558594 33.320312 46.421875 C 32.070312 45.375 31.351562 44.039062 31.121094 42.429688 C 31.078125 42.136719 31.019531 41.824219 30.875 41.570312 C 30.703125 41.261719 30.429688 41.007812 30.203125 40.734375 C 30.113281 41.074219 29.902344 41.4375 29.960938 41.753906 C 30.265625 43.402344 30.925781 44.902344 32.109375 46.117188 C 32.511719 46.527344 33.011719 46.839844 33.464844 47.199219 Z M 33.464844 47.199219 "/></g></g></g><g clip-rule="nonzero" clip-path="url(#8704f1ddfd)"><g clip-rule="nonzero" clip-path="url(#06da280870)"><g clip-rule="nonzero" clip-path="url(#5e0511dcd5)"><path style=" stroke:none;fill-rule:evenodd;fill:#ffffff;fill-opacity:1;" d="M 27.785156 0.542969 C 28.972656 0.914062 30.066406 1.152344 31.074219 1.59375 C 34.402344 3.042969 37.707031 4.539062 41 6.070312 C 42.988281 6.992188 44.675781 8.324219 46.027344 10.066406 C 46.339844 10.46875 46.730469 10.808594 47.070312 11.1875 C 47.449219 11.609375 47.878906 12.007812 48.167969 12.492188 C 48.347656 12.796875 48.304688 13.234375 48.363281 13.613281 C 48.027344 13.472656 47.613281 13.414062 47.367188 13.179688 C 46.472656 12.332031 45.589844 11.46875 44.785156 10.539062 C 43.484375 9.027344 41.929688 7.882812 40.117188 7.09375 C 36.464844 5.5 32.796875 3.929688 29.128906 2.371094 C 28.664062 2.171875 28.128906 2.136719 27.667969 1.925781 C 27.398438 1.800781 27.210938 1.484375 26.984375 1.253906 C 27.25 1.019531 27.511719 0.785156 27.785156 0.542969 Z M 27.785156 0.542969 "/></g></g></g><g clip-rule="nonzero" clip-path="url(#aa95d5f4c1)"><g clip-rule="nonzero" clip-path="url(#b105779fa3)"><g clip-rule="nonzero" clip-path="url(#a16b547a5c)"><path style=" stroke:none;fill-rule:evenodd;fill:#ffffff;fill-opacity:1;" d="M 21.617188 51.648438 C 21.816406 51.921875 22.050781 52.175781 22.203125 52.472656 C 22.777344 53.59375 23.320312 54.734375 23.890625 55.859375 C 26.683594 61.414062 33.945312 62.875 38.699219 58.847656 C 38.882812 58.695312 39.0625 58.464844 39.265625 58.433594 C 39.53125 58.398438 39.878906 58.457031 40.070312 58.617188 C 40.175781 58.703125 40.125 59.15625 39.988281 59.320312 C 39.675781 59.714844 39.3125 60.097656 38.894531 60.375 C 35.523438 62.597656 32 63.109375 28.203125 61.4375 C 24.453125 59.785156 22.425781 56.785156 21.328125 53.015625 C 21.210938 52.617188 21.296875 52.15625 21.289062 51.726562 C 21.398438 51.699219 21.507812 51.671875 21.617188 51.648438 Z M 21.617188 51.648438 "/></g></g></g><g clip-rule="nonzero" clip-path="url(#d23e5ddaa6)"><g clip-rule="nonzero" clip-path="url(#efd91e62db)"><g clip-rule="nonzero" clip-path="url(#448c9bf5ce)"><path style=" stroke:none;fill-rule:evenodd;fill:#ffffff;fill-opacity:1;" d="M 35.242188 0.6875 C 36.125 1.066406 37.078125 1.355469 37.898438 1.855469 C 38.839844 2.429688 39.691406 3.167969 40.53125 3.886719 C 40.753906 4.078125 40.800781 4.472656 40.929688 4.777344 C 40.574219 4.785156 40.164062 4.914062 39.878906 4.777344 C 38.117188 3.945312 36.371094 3.074219 34.648438 2.171875 C 34.324219 2 34.117188 1.617188 33.855469 1.335938 C 34.265625 1.144531 34.675781 0.953125 35.242188 0.6875 Z M 35.242188 0.6875 "/></g></g></g><g clip-rule="nonzero" clip-path="url(#660ec0f5ea)"><g clip-rule="nonzero" clip-path="url(#69c05c1abb)"><g clip-rule="nonzero" clip-path="url(#a2df163afd)"><path style=" stroke:none;fill-rule:evenodd;fill:#ffffff;fill-opacity:1;" d="M 49.285156 64.945312 C 49.167969 65.292969 49.148438 65.683594 48.945312 65.898438 C 48.007812 66.894531 47.050781 67.878906 46.023438 68.777344 C 45.808594 68.96875 45.269531 68.792969 44.882812 68.785156 C 44.96875 68.421875 44.941406 67.949219 45.164062 67.714844 C 46.199219 66.628906 47.292969 65.601562 48.390625 64.578125 C 48.53125 64.445312 48.832031 64.375 49.019531 64.429688 C 49.144531 64.464844 49.199219 64.761719 49.285156 64.945312 Z M 49.285156 64.945312 "/></g></g></g><g clip-rule="nonzero" clip-path="url(#8bbeeb6b31)"><g clip-rule="nonzero" clip-path="url(#1d6db16e0e)"><g clip-rule="nonzero" clip-path="url(#cc99e53b1b)"><path style=" stroke:none;fill-rule:evenodd;fill:#ffffff;fill-opacity:1;" d="M 6.558594 49.28125 C 6.675781 50.523438 6.789062 51.765625 6.90625 53.011719 C 6.785156 53.074219 6.667969 53.132812 6.546875 53.195312 C 6.285156 52.871094 5.929688 52.585938 5.777344 52.214844 C 5.355469 51.179688 5.582031 49.992188 6.558594 49.28125 Z M 6.558594 49.28125 "/></g></g></g><g clip-rule="nonzero" clip-path="url(#830f8fe707)"><g clip-rule="nonzero" clip-path="url(#96ad20c6d0)"><g clip-rule="nonzero" clip-path="url(#5d8203690a)"><path style=" stroke:none;fill-rule:evenodd;fill:#ffffff;fill-opacity:1;" d="M 28.890625 53.632812 C 29.851562 54.007812 30.625 54.277344 31.367188 54.617188 C 31.566406 54.707031 31.832031 55.09375 31.78125 55.191406 C 31.664062 55.417969 31.382812 55.644531 31.136719 55.695312 C 30.171875 55.886719 29.214844 55.085938 28.890625 53.632812 Z M 28.890625 53.632812 "/></g></g></g><g clip-rule="nonzero" clip-path="url(#5400fd7170)"><g clip-rule="nonzero" clip-path="url(#ddafb2d53a)"><g clip-rule="nonzero" clip-path="url(#b32f358305)"><path style=" stroke:none;fill-rule:evenodd;fill:#ffffff;fill-opacity:1;" d="M 23.648438 51.167969 C 23.277344 50.546875 22.910156 49.925781 22.539062 49.308594 C 22.640625 49.246094 22.742188 49.183594 22.84375 49.121094 C 23.226562 49.734375 23.605469 50.351562 23.988281 50.964844 C 23.875 51.03125 23.761719 51.097656 23.648438 51.167969 Z M 23.648438 51.167969 "/></g></g></g><g clip-rule="nonzero" clip-path="url(#df29a2de91)"><g clip-rule="nonzero" clip-path="url(#910cdff896)"><g clip-rule="nonzero" clip-path="url(#a2deedb64a)"><path style=" stroke:none;fill-rule:evenodd;fill:#ffffff;fill-opacity:1;" d="M 33.464844 47.199219 C 33.011719 46.839844 32.511719 46.527344 32.109375 46.117188 C 30.925781 44.902344 30.265625 43.402344 29.960938 41.753906 C 29.902344 41.4375 30.113281 41.074219 30.203125 40.734375 C 30.429688 41.007812 30.703125 41.261719 30.875 41.570312 C 31.019531 41.824219 31.078125 42.136719 31.121094 42.429688 C 31.351562 44.039062 32.070312 45.375 33.320312 46.421875 C 33.484375 46.558594 33.578125 46.773438 33.703125 46.953125 C 33.625 47.035156 33.542969 47.117188 33.464844 47.199219 Z M 33.464844 47.199219 "/></g></g></g></g><mask id="05dfcc06fc"><g filter="url(#39b394e585)"><rect x="0" width="375" y="0" height="374.999991" style="fill:#000000;fill-opacity:0.47;stroke:none;"/></g></mask></g><g clip-rule="nonzero" clip-path="url(#ea7dc3807c)"><path style=" stroke:none;fill-rule:nonzero;fill:#ffffff;fill-opacity:1;" d="M 315.582031 276.613281 L 200.550781 341.789062 C 196.527344 344.070312 192.015625 345.210938 187.503906 345.210938 C 182.992188 345.210938 178.476562 344.070312 174.449219 341.789062 L 59.421875 276.613281 C 51.144531 271.917969 46 263.089844 46 253.574219 L 46 124.566406 C 46 115.1875 51.03125 106.421875 59.132812 101.699219 L 174.160156 34.601562 C 182.390625 29.800781 192.613281 29.804688 200.839844 34.601562 L 315.867188 101.699219 C 323.96875 106.421875 329.003906 115.183594 329.003906 124.566406 L 329.003906 226.855469 L 310.160156 212.175781 L 310.160156 124.566406 C 310.160156 121.863281 308.710938 119.335938 306.371094 117.976562 L 191.347656 50.882812 C 188.972656 49.5 186.027344 49.5 183.660156 50.882812 L 175.621094 55.570312 L 191.890625 83.890625 C 234.371094 85.65625 270.371094 112.949219 284.914062 150.796875 L 284.914062 150.800781 C 287.234375 156.832031 289.007812 163.132812 290.175781 169.640625 L 231.179688 169.640625 C 224.238281 152.3125 207.28125 140.03125 187.503906 140.03125 C 161.5625 140.03125 140.460938 161.132812 140.460938 187.070312 C 140.460938 213.007812 161.5625 234.113281 187.503906 234.113281 C 196.777344 234.113281 205.429688 231.402344 212.722656 226.746094 L 240.058594 226.746094 C 228.023438 242.65625 208.945312 252.953125 187.503906 252.953125 C 178.695312 252.953125 170.285156 251.21875 162.601562 248.070312 L 151.9375 265.816406 C 162.773438 270.800781 174.816406 273.585938 187.503906 273.585938 C 220.691406 273.585938 249.5 254.558594 263.652344 226.855469 L 329.007812 226.855469 L 329.007812 253.574219 C 329.003906 263.089844 323.859375 271.917969 315.582031 276.613281 Z M 242.457031 150.792969 L 264.378906 150.792969 C 250.5 122.3125 221.257812 102.640625 187.503906 102.640625 C 185.363281 102.640625 183.253906 102.746094 181.160156 102.902344 L 178.546875 98.382812 L 178.503906 98.410156 L 159.34375 65.0625 L 159.308594 65.085938 L 149.890625 48.761719 L 146.054688 72.816406 L 68.628906 117.976562 C 66.292969 119.339844 64.84375 121.863281 64.84375 124.570312 L 64.84375 253.574219 C 64.84375 256.320312 66.328125 258.863281 68.714844 260.214844 L 76.550781 264.65625 L 94.320312 234.929688 C 87.207031 220.84375 83.1875 204.941406 83.1875 188.109375 C 83.1875 146.621094 107.535156 110.726562 142.6875 93.929688 L 152.105469 110.34375 C 152.105469 110.34375 152.105469 110.34375 152.105469 110.347656 L 161.421875 126.566406 C 169.421875 123.101562 178.242188 121.179688 187.503906 121.179688 C 210.433594 121.183594 230.660156 132.964844 242.457031 150.792969 Z M 274.410156 245.699219 C 255.710938 273.839844 223.746094 292.429688 187.503906 292.429688 C 164.539062 292.429688 143.300781 284.957031 126.050781 272.335938 L 130.308594 265.242188 L 130.300781 265.234375 L 146.363281 238.496094 C 131.285156 226.414062 121.617188 207.851562 121.617188 187.066406 C 121.617188 166.75 130.859375 148.550781 145.363281 136.457031 L 135.929688 120.027344 C 115.351562 135.644531 102.03125 160.347656 102.03125 188.113281 C 102.03125 205.453125 107.234375 221.59375 116.144531 235.082031 L 114.128906 238.460938 L 114.15625 238.476562 L 88 282.226562 L 87.9375 282.1875 L 83.1875 290.074219 L 105.277344 280.929688 L 183.738281 325.390625 C 186.058594 326.707031 188.945312 326.707031 191.261719 325.390625 L 306.285156 260.214844 C 308.675781 258.863281 310.15625 256.316406 310.15625 253.574219 L 310.15625 245.699219 Z M 274.410156 245.699219 "/></g><path style=" stroke:none;fill-rule:nonzero;fill:#ffffff;fill-opacity:1;" d="M 175.941406 170.066406 C 176.261719 170.140625 176.574219 170.246094 176.875 170.382812 C 177.175781 170.519531 177.457031 170.683594 177.726562 170.875 C 177.992188 171.070312 178.242188 171.285156 178.464844 171.527344 C 178.691406 171.765625 178.890625 172.027344 179.0625 172.308594 C 179.238281 172.585938 179.382812 172.882812 179.5 173.191406 C 179.613281 173.5 179.699219 173.816406 179.753906 174.140625 C 179.804688 174.464844 179.828125 174.792969 179.816406 175.125 C 179.804688 175.453125 179.761719 175.777344 179.6875 176.097656 C 179.613281 176.421875 179.507812 176.730469 179.371094 177.03125 C 179.234375 177.332031 179.070312 177.613281 178.878906 177.882812 C 178.683594 178.152344 178.46875 178.398438 178.226562 178.621094 C 177.988281 178.847656 177.726562 179.046875 177.445312 179.222656 C 177.167969 179.394531 176.871094 179.539062 176.5625 179.65625 C 176.253906 179.769531 175.9375 179.855469 175.613281 179.910156 C 175.289062 179.964844 174.960938 179.984375 174.632812 179.972656 C 174.300781 179.960938 173.976562 179.917969 173.65625 179.84375 C 173.335938 179.769531 173.023438 179.664062 172.722656 179.527344 C 172.421875 179.390625 172.140625 179.226562 171.871094 179.035156 C 171.605469 178.84375 171.355469 178.625 171.132812 178.386719 C 170.90625 178.144531 170.707031 177.882812 170.535156 177.605469 C 170.359375 177.324219 170.214844 177.027344 170.097656 176.71875 C 169.984375 176.410156 169.898438 176.09375 169.84375 175.769531 C 169.792969 175.445312 169.769531 175.117188 169.78125 174.789062 C 169.792969 174.457031 169.835938 174.132812 169.910156 173.8125 C 169.984375 173.492188 170.089844 173.179688 170.226562 172.878906 C 170.363281 172.578125 170.527344 172.296875 170.71875 172.027344 C 170.910156 171.761719 171.128906 171.515625 171.371094 171.289062 C 171.609375 171.0625 171.871094 170.863281 172.152344 170.691406 C 172.429688 170.515625 172.726562 170.371094 173.035156 170.253906 C 173.34375 170.140625 173.660156 170.054688 173.984375 170 C 174.308594 169.949219 174.636719 169.925781 174.964844 169.9375 C 175.296875 169.949219 175.621094 169.992188 175.941406 170.066406 Z M 175.941406 170.066406 "/><g clip-rule="nonzero" clip-path="url(#49a08535d6)"><path style=" stroke:none;fill-rule:evenodd;fill:#ffffff;fill-opacity:1;" d="M 174.867188 205.464844 C 174.371094 205.472656 173.878906 205.40625 173.398438 205.269531 C 172.921875 205.128906 172.472656 204.925781 172.054688 204.652344 C 171.632812 204.378906 171.265625 204.050781 170.945312 203.667969 C 170.625 203.285156 170.367188 202.863281 170.171875 202.402344 C 169.976562 201.945312 169.855469 201.464844 169.804688 200.96875 C 169.75 200.472656 169.773438 199.980469 169.871094 199.488281 C 169.964844 199 170.132812 198.53125 170.367188 198.09375 C 170.601562 197.652344 170.894531 197.253906 171.25 196.902344 L 196.746094 171.40625 C 196.976562 171.171875 197.230469 170.960938 197.503906 170.777344 C 197.777344 170.589844 198.070312 170.433594 198.375 170.308594 C 198.679688 170.179688 198.992188 170.085938 199.316406 170.019531 C 199.640625 169.953125 199.96875 169.921875 200.296875 169.917969 C 200.628906 169.917969 200.957031 169.949219 201.28125 170.015625 C 201.605469 170.078125 201.921875 170.171875 202.226562 170.300781 C 202.53125 170.425781 202.820312 170.582031 203.097656 170.765625 C 203.371094 170.949219 203.625 171.15625 203.859375 171.390625 C 204.09375 171.625 204.300781 171.878906 204.484375 172.152344 C 204.667969 172.429688 204.824219 172.71875 204.949219 173.023438 C 205.078125 173.328125 205.171875 173.644531 205.234375 173.96875 C 205.300781 174.292969 205.332031 174.621094 205.332031 174.949219 C 205.328125 175.28125 205.296875 175.609375 205.230469 175.933594 C 205.164062 176.257812 205.070312 176.570312 204.941406 176.875 C 204.816406 177.179688 204.660156 177.46875 204.472656 177.746094 C 204.289062 178.019531 204.078125 178.273438 203.84375 178.503906 L 186.917969 195.429688 L 200.292969 195.429688 C 200.625 195.429688 200.949219 195.464844 201.273438 195.527344 C 201.597656 195.589844 201.910156 195.6875 202.214844 195.8125 C 202.519531 195.9375 202.808594 196.09375 203.082031 196.277344 C 203.359375 196.460938 203.609375 196.667969 203.84375 196.902344 C 204.078125 197.132812 204.285156 197.386719 204.46875 197.664062 C 204.652344 197.9375 204.804688 198.226562 204.933594 198.53125 C 205.058594 198.835938 205.152344 199.148438 205.21875 199.472656 C 205.28125 199.796875 205.316406 200.121094 205.316406 200.453125 C 205.316406 200.78125 205.28125 201.105469 205.21875 201.429688 C 205.152344 201.753906 205.058594 202.066406 204.933594 202.371094 C 204.804688 202.675781 204.652344 202.964844 204.46875 203.242188 C 204.285156 203.515625 204.078125 203.769531 203.84375 204 C 203.609375 204.234375 203.359375 204.441406 203.082031 204.625 C 202.808594 204.808594 202.519531 204.964844 202.214844 205.089844 C 201.910156 205.214844 201.597656 205.3125 201.273438 205.375 C 200.949219 205.4375 200.625 205.472656 200.292969 205.472656 Z M 174.867188 205.464844 "/></g></g></svg>